<svg width="228" height="224" viewBox="0 0 228 224" fill="none" xmlns="http://www.w3.org/2000/svg">
<path d="M140.719 150.367C140.866 150.441 140.866 150.441 141.016 150.516C140.869 150.589 140.869 150.589 140.719 150.664C140.719 150.566 140.719 150.468 140.719 150.367Z" fill="#606261"/>
<path d="M140.719 151.555C141.016 151.703 141.016 151.703 141.016 151.703L140.719 151.555Z" fill="#636363"/>
<path d="M140.719 147.992C141.016 148.141 141.016 148.141 141.016 148.141L140.719 147.992Z" fill="#59595A"/>
<path d="M161.797 8.75781C162.094 8.90625 162.094 8.90625 162.094 8.90625L161.797 8.75781Z" fill="#555554"/>
<path d="M161.797 5.19531C162.094 5.34375 162.094 5.34375 162.094 5.34375L161.797 5.19531Z" fill="#646364"/>
<path d="M114.28 24.5485C114.995 24.6114 115.708 24.6663 116.424 24.7096C116.607 24.7212 116.79 24.7328 116.978 24.7447C117.352 24.7683 117.726 24.7911 118.1 24.8131C119.051 24.8748 119.912 24.976 120.828 25.2344C121.088 25.2898 121.348 25.3429 121.609 25.3944C128.503 26.7668 135.338 29.1908 140.935 33.5562C141.06 33.6511 141.184 33.746 141.312 33.8438C141.435 33.9678 141.558 34.0918 141.685 34.2195C142.437 34.5357 142.873 34.2799 143.612 33.9911C143.787 33.918 143.962 33.8449 144.142 33.7696C144.487 33.6314 144.832 33.4938 145.177 33.3567C145.347 33.2884 145.516 33.2201 145.691 33.1497C146.376 32.8908 147.072 32.6863 147.777 32.4896C148.164 32.3984 148.164 32.3984 148.289 32.0625C148.428 32.07 148.567 32.0774 148.709 32.0851C149.47 32.0849 150.181 31.8831 150.915 31.7007C152.073 31.4236 153.18 31.1996 154.375 31.1719C154.375 31.0739 154.375 30.976 154.375 30.875C159.33 30.6649 159.33 30.6649 161.602 30.7822C161.754 30.7891 161.754 30.7891 161.91 30.7961C162.438 30.8282 162.681 30.8709 163.133 31.1719C163.382 31.2594 163.633 31.3424 163.884 31.4224C165.417 31.9743 166.569 32.9071 167.438 34.2891C168.85 37.3384 168.198 40.695 167.104 43.7334C166.651 44.9382 166.108 46.0862 165.506 47.2226C165.367 47.4859 165.233 47.7515 165.098 48.0172C163.881 50.3886 162.412 52.6324 160.906 54.8291C160.827 54.9448 160.748 55.0605 160.666 55.1797C160.34 55.6525 160.01 56.1164 159.66 56.5715C159.563 56.6976 159.466 56.8237 159.366 56.9536C159.285 57.0522 159.205 57.1507 159.122 57.2523C158.697 58.2533 159.355 59.7171 159.617 60.711C162.354 71.4397 161.226 82.9291 156.453 92.9219C156.381 93.0758 156.381 93.0758 156.307 93.2328C154.389 97.308 151.775 101.033 148.72 104.335C148.413 104.676 148.13 105.032 147.844 105.391C147.175 106.108 147.175 106.108 146.656 106.281C146.656 106.379 146.656 106.477 146.656 106.578C146.47 106.772 146.47 106.772 146.192 107.005C146.084 107.097 145.975 107.189 145.862 107.284C145.733 107.394 145.603 107.504 145.469 107.617C145.314 107.753 145.16 107.888 145.005 108.024C143.999 108.906 142.971 109.732 141.876 110.502C141.449 110.805 141.161 111.036 140.867 111.477C140.769 111.477 140.671 111.477 140.57 111.477C140.197 111.709 139.832 111.947 139.466 112.191C136.067 114.413 132.421 116.304 128.547 117.563C128.407 117.608 128.267 117.654 128.122 117.701C119.764 120.381 111.247 120.571 102.719 118.602C102.607 118.577 102.495 118.552 102.38 118.527C96.9809 117.337 91.8676 114.59 87.3961 111.415C87.2822 111.334 87.1684 111.254 87.0511 111.171C86.6875 110.883 86.6875 110.883 86.2865 110.468C85.8503 110.024 85.4618 109.691 84.9062 109.398C84.0624 109.408 83.3516 109.69 82.5776 109.992C82.3629 110.068 82.1477 110.143 81.9321 110.217C81.6056 110.329 81.2793 110.441 80.9541 110.557C79.948 110.914 78.9332 111.18 77.8926 111.421C77.6651 111.476 77.6651 111.476 77.433 111.532C76.7896 111.682 76.2182 111.792 75.5547 111.773C75.5057 111.871 75.4567 111.969 75.4062 112.07C75.1231 112.124 75.1231 112.124 74.7545 112.149C74.2167 112.192 73.6874 112.249 73.1542 112.331C68.6046 113.004 63.0859 113.301 59.1634 110.443C59.0373 110.343 58.9112 110.244 58.7812 110.141C58.672 110.056 58.5627 109.971 58.4502 109.884C57.4698 109.023 56.6161 107.538 56.3361 106.257C56.3102 106.167 56.2844 106.077 56.2578 105.984C56.1598 105.935 56.0619 105.886 55.9609 105.836C55.986 105.737 56.0111 105.638 56.0369 105.536C56.1074 105.106 56.1083 104.709 56.092 104.275C55.976 100.81 57.3138 97.5566 58.9297 94.5547C59.0158 94.3915 59.1019 94.2283 59.1906 94.0601C61.2536 90.2959 64.0044 86.8877 66.8123 83.6584C67.2184 83.1989 67.2184 83.1989 67.5391 82.6797C67.437 82.2577 67.3251 81.8442 67.2051 81.4273C65.0593 73.5653 65.9924 64.9151 68.5508 57.2692C68.5931 57.1425 68.6354 57.0158 68.679 56.8852C68.7169 56.7744 68.7547 56.6635 68.7938 56.5493C68.8949 56.2368 68.8949 56.2368 68.875 55.8125C68.973 55.8125 69.0709 55.8125 69.1719 55.8125C69.1979 55.7314 69.2239 55.6502 69.2507 55.5666C71.0727 49.9796 74.4005 45.1101 78.1488 40.6468C78.2979 40.4676 78.4451 40.2868 78.5902 40.1044C78.7597 39.8926 78.9376 39.6877 79.1172 39.4844C79.2152 39.4844 79.3131 39.4844 79.4141 39.4844C79.4141 39.3864 79.4141 39.2885 79.4141 39.1875C79.512 39.1875 79.61 39.1875 79.7109 39.1875C79.7473 39.1028 79.7836 39.018 79.8211 38.9307C80.4189 37.852 81.5977 37.0093 82.5312 36.2188C82.6554 36.111 82.7796 36.0033 82.9076 35.8923C86.2362 33.049 92.8232 27.6094 97.375 27.6094C97.424 27.5114 97.473 27.4135 97.5234 27.3125C97.8116 27.2122 97.8116 27.2122 98.2007 27.1177C98.874 26.9464 99.5274 26.7449 100.186 26.5239C104.11 25.2651 108.233 24.762 112.339 24.6641C112.672 24.6481 112.672 24.6481 113.022 24.561C113.463 24.4821 113.834 24.5063 114.28 24.5485ZM147.129 36.3115C147.012 36.3403 146.895 36.3691 146.775 36.3987C146.21 36.5473 145.858 36.6749 145.469 37.1094C145.606 37.2238 145.744 37.3382 145.886 37.4561C146.065 37.6065 146.245 37.7569 146.424 37.9072C146.515 37.9826 146.606 38.058 146.699 38.1357C147.382 38.7086 147.382 38.7086 147.547 39.0391C147.645 39.0391 147.743 39.0391 147.844 39.0391C147.882 39.1267 147.921 39.2144 147.96 39.3046C148.154 39.6576 148.355 39.8621 148.651 40.1338C151.042 42.4861 152.87 45.5356 154.505 48.437C154.595 48.5864 154.685 48.7358 154.778 48.8898C155.338 49.9252 155.338 49.9252 155.138 50.6097C154.912 51.0373 154.663 51.4168 154.375 51.8047C154.312 51.8964 154.248 51.988 154.183 52.0825C154.02 52.3115 153.845 52.5315 153.67 52.751C153.541 52.9141 153.412 53.0772 153.283 53.2404C153.218 53.3218 153.153 53.4032 153.086 53.4871C152.829 53.8129 152.577 54.1432 152.325 54.4737C150.649 56.6728 148.865 58.7874 146.965 60.7962C146.63 61.1406 146.63 61.1406 146.508 61.6016C146.41 61.6016 146.312 61.6016 146.211 61.6016C146.002 61.8071 146.002 61.8071 145.782 62.0846C145.112 62.8728 144.384 63.5996 143.651 64.3292C143.416 64.5637 143.181 64.7991 142.947 65.0345C142.797 65.1842 142.647 65.3339 142.497 65.4836C142.362 65.6183 142.227 65.753 142.088 65.8917C141.758 66.2031 141.758 66.2031 141.461 66.3516C141.461 66.4496 141.461 66.5475 141.461 66.6485C141.374 66.6877 141.287 66.7269 141.197 66.7673C140.855 66.9519 140.618 67.1502 140.338 67.4185C140.241 67.5099 140.145 67.6014 140.045 67.6956C139.946 67.7909 139.847 67.8862 139.745 67.9844C139.547 68.1733 139.349 68.362 139.15 68.5503C139.02 68.6757 139.02 68.6757 138.886 68.8037C138.641 69.0235 138.641 69.0235 138.195 69.3203C137.69 69.2881 137.247 69.1982 136.76 69.0565C135.053 68.567 133.411 68.6516 131.812 69.4688C130.409 70.3424 129.443 71.5828 128.992 73.1797C128.876 73.7529 128.84 74.1904 128.918 74.7719C129.107 76.2477 129.107 76.2477 128.637 76.8648C128.046 77.4306 127.368 77.8696 126.676 78.3015C126.34 78.5114 126.012 78.73 125.685 78.9537C123.574 80.3817 121.321 81.582 119.03 82.6922C118.763 82.8217 118.498 82.9536 118.232 83.0856C113.092 85.5784 106.949 87.6194 101.265 85.9737C99.7449 85.4434 98.5676 84.3939 97.8203 82.9766C96.7722 80.7489 96.9183 78.6002 97.7217 76.3172C99.3135 72.0324 102.735 68.0064 106.281 65.1641C106.492 64.9942 106.492 64.9942 106.707 64.8208C110.59 61.7201 114.717 58.9938 119.204 56.842C119.5 56.6994 119.795 56.5541 120.09 56.4086C122.476 55.2441 124.965 54.3717 127.48 53.5303C127.576 53.4981 127.672 53.4658 127.771 53.4326C128.765 53.1004 129.752 52.7818 130.773 52.5469C130.871 52.5221 130.968 52.4974 131.069 52.4718C132.801 52.0458 134.588 51.8836 136.361 51.7523C136.571 51.7363 136.571 51.7363 136.786 51.7201C136.911 51.7112 137.036 51.7024 137.165 51.6933C137.454 51.686 137.454 51.686 137.602 51.5078C137.602 51.6058 137.602 51.7038 137.602 51.8047C137.722 51.8259 137.722 51.8259 137.846 51.8474C139.968 52.2257 141.785 52.6539 143.545 53.964C143.826 54.1856 143.826 54.1856 144.133 54.3281C143.678 52.6636 142.785 51.7922 141.312 50.9141C136.618 48.6402 130.929 49.2332 125.983 50.2382C125.587 50.3186 125.189 50.3952 124.792 50.4717C114.665 52.4845 104.84 57.1146 96.027 62.3818C95.7428 62.5516 95.4583 62.7207 95.1732 62.8891C91.8745 64.8382 88.6744 66.9681 85.6484 69.3203C85.4221 69.4947 85.1958 69.669 84.9695 69.8433C82.5264 71.7293 80.1486 73.6833 77.8845 75.7814C77.534 76.1029 77.178 76.4148 76.8164 76.7237C76.3899 77.093 76.0463 77.48 75.7031 77.9297C75.3119 78.3285 74.9129 78.7188 74.5133 79.1091C73.6264 79.9783 72.7876 80.8563 72.0154 81.8314C71.6859 82.2463 71.3437 82.648 70.9995 83.0508C67.0129 87.8459 62.0933 94.7839 62.6406 101.383C62.8226 102.695 63.1151 103.904 63.9766 104.945C64.0745 104.945 64.1725 104.945 64.2734 104.945C64.3083 105.033 64.3431 105.12 64.379 105.21C65.0712 106.4 66.7675 106.819 68.0145 107.18C69.2761 107.494 70.523 107.511 71.8159 107.515C71.9204 107.516 72.0249 107.516 72.1325 107.516C75.0704 107.518 77.9124 107.024 80.75 106.281C80.8922 106.027 80.8922 106.027 80.8984 105.688C80.659 105.396 80.433 105.16 80.1562 104.908C80.0031 104.762 79.8502 104.616 79.6976 104.469C79.6228 104.398 79.548 104.327 79.471 104.254C79.0236 103.82 78.6274 103.343 78.2266 102.867C78.1192 102.743 78.0119 102.62 77.9013 102.492C76.1797 100.478 74.6955 98.3111 73.3509 96.0301C73.2057 95.7859 73.0558 95.5445 72.9048 95.3039C72.2732 94.2801 71.7615 93.2025 71.25 92.1148C71.1749 91.958 71.0998 91.8013 71.0224 91.6398C70.9536 91.4906 70.8848 91.3414 70.814 91.1876C70.7201 90.9866 70.7201 90.9866 70.6244 90.7815C70.4873 90.3311 70.5108 90.101 70.6562 89.6563C70.8196 89.3757 70.8196 89.3757 71.025 89.1101C71.1017 89.01 71.1783 88.91 71.2573 88.807C71.3406 88.7015 71.4239 88.596 71.5098 88.4873C71.5961 88.3765 71.6823 88.2657 71.7712 88.1515C72.6477 87.0358 73.5694 85.963 74.5156 84.9063C74.5825 84.8308 74.6494 84.7553 74.7183 84.6775C75.7818 83.4805 76.9109 82.3474 78.041 81.2139C78.1146 81.1399 78.1882 81.0659 78.2641 80.9896C79.1153 80.1349 79.978 79.3039 80.8984 78.5235C81.0609 78.3825 81.2233 78.2414 81.3855 78.1002C83.1128 76.6088 84.8778 75.1639 86.6875 73.7735C86.9257 73.588 87.1638 73.4025 87.4019 73.2168C88.1463 72.6364 88.9045 72.0882 89.6841 71.5562C90.5494 70.9639 91.4083 70.3635 92.2632 69.7564C95.1925 67.684 98.2333 65.8443 101.383 64.125C100.705 64.9246 99.9952 65.6739 99.239 66.3987C99.0576 66.5756 98.8836 66.7599 98.7109 66.9453C98.7109 67.0433 98.7109 67.1413 98.7109 67.2422C98.613 67.2422 98.515 67.2422 98.4141 67.2422C96.8203 68.8967 95.4323 70.9851 94.4062 73.0313C94.2788 73.2626 94.2788 73.2626 94.1488 73.4986C92.4649 76.6433 91.8585 80.4895 92.8842 83.9455C93.9209 86.8166 95.9166 88.9108 98.635 90.2483C99.6633 90.7247 100.726 91.0338 101.828 91.2891C102.054 91.3436 102.054 91.3436 102.285 91.3993C105.774 92.0802 109.433 91.4767 112.812 90.5469C112.812 90.4489 112.812 90.351 112.812 90.25C112.897 90.2784 112.982 90.3067 113.069 90.3359C113.47 90.4103 113.67 90.3491 114.051 90.2118C114.235 90.1465 114.235 90.1465 114.423 90.0799C114.553 90.032 114.683 89.984 114.816 89.9346C114.951 89.8861 115.085 89.8375 115.223 89.7875C116.73 89.238 118.188 88.6102 119.641 87.9307C119.763 87.8736 119.886 87.8165 120.012 87.7577C120.128 87.7026 120.245 87.6476 120.364 87.5909C120.52 87.5175 120.52 87.5175 120.679 87.4427C121.002 87.2676 121.278 87.0575 121.57 86.836C121.918 86.661 122.267 86.4921 122.619 86.3257C124.072 85.6174 125.418 84.7567 126.766 83.8672C126.871 83.7977 126.977 83.7281 127.086 83.6565C128.413 82.7783 129.673 81.8362 130.906 80.8289C131.027 80.731 131.027 80.731 131.151 80.6312C131.331 80.4825 131.507 80.3271 131.68 80.1702C131.961 80.0078 131.961 80.0078 132.313 80.0391C132.442 80.0778 132.571 80.1165 132.703 80.1563C134.558 80.6653 136.135 80.7805 137.92 79.9528C139.32 79.1541 140.151 78.0942 140.719 76.5938C140.867 76.0259 140.887 75.4913 140.886 74.9053C140.886 74.7358 140.885 74.5662 140.885 74.3916C140.871 74.014 140.831 73.6933 140.747 73.3281C140.733 73.1077 140.733 73.1077 140.719 72.8828C141.305 72.2296 141.987 71.659 142.645 71.0781C142.85 70.8939 143.047 70.7015 143.242 70.5078C143.242 70.4099 143.242 70.3119 143.242 70.211C143.326 70.1751 143.41 70.1393 143.497 70.1023C143.903 69.8767 144.179 69.6068 144.507 69.2774C144.634 69.1498 144.761 69.0222 144.893 68.8907C145.091 68.6901 145.091 68.6901 145.292 68.4854C145.423 68.3551 145.553 68.2248 145.687 68.0905C146.358 67.4153 147.009 66.7316 147.626 66.0069C147.844 65.7578 147.844 65.7578 148.095 65.5209C148.323 65.3238 148.323 65.3238 148.289 65.0156C148.387 65.0156 148.485 65.0156 148.586 65.0156C148.796 64.7822 148.995 64.539 149.189 64.292C149.635 63.7341 150.087 63.193 150.571 62.6685C151.397 61.7598 152.143 60.7931 152.891 59.8203C152.973 59.7138 153.055 59.6073 153.14 59.4975C153.397 59.1632 153.654 58.8285 153.911 58.4937C153.991 58.3901 154.07 58.2866 154.152 58.18C154.376 57.8866 154.598 57.592 154.82 57.2969C154.893 57.2012 154.967 57.1055 155.042 57.0069C155.461 56.4693 155.461 56.4693 155.562 55.8125C155.709 55.7635 155.856 55.7146 156.008 55.6641C156.221 55.4149 156.221 55.4149 156.416 55.0993C156.493 54.9803 156.571 54.8614 156.65 54.7388C156.773 54.5447 156.773 54.5447 156.898 54.3467C156.984 54.2136 157.069 54.0805 157.157 53.9433C158.004 52.611 158.799 51.2519 159.57 49.875C159.626 49.7773 159.682 49.6797 159.739 49.579C161.553 46.3893 163.156 42.444 162.242 38.7422C162.095 38.7422 161.948 38.7422 161.797 38.7422C161.797 38.6442 161.797 38.5463 161.797 38.4453C161.895 38.4453 161.993 38.4453 162.094 38.4453C161.777 37.3121 161.063 36.4647 160.079 35.8204C156.167 33.8045 151.128 35.3023 147.129 36.3115Z" fill="#5A4FCF"/>
<path d="M67.0938 82.3828C67.1917 82.3828 67.2897 82.3828 67.3906 82.3828C67.3416 82.6277 67.2927 82.8727 67.2422 83.125C67.1442 83.076 67.0463 83.027 66.9453 82.9766C66.9943 82.7806 67.0433 82.5847 67.0938 82.3828Z" fill="#5A4FCF"/>
<path d="M155.117 55.9609C155.166 56.1079 155.215 56.2548 155.266 56.4062C155.217 56.5042 155.168 56.6022 155.117 56.7031C155.019 56.6541 154.921 56.6052 154.82 56.5547C154.918 56.3587 155.016 56.1628 155.117 55.9609Z" fill="#5A4FCF"/>
<path d="M65.9062 73.9219C65.9552 73.9219 66.0042 73.9219 66.0547 73.9219C66.0547 74.1668 66.0547 74.4117 66.0547 74.6641C65.9567 74.5171 65.8588 74.3702 65.7578 74.2188C65.8068 74.1208 65.8558 74.0228 65.9062 73.9219Z" fill="#5A4FCF"/>
<path d="M161.945 42.75C161.994 42.9459 162.043 43.1419 162.094 43.3438C161.947 43.4172 161.947 43.4172 161.797 43.4922C161.846 43.2473 161.895 43.0023 161.945 42.75Z" fill="#5A4FCF"/>
<path d="M126.32 50.3203C126.565 50.3203 126.81 50.3203 127.062 50.3203C127.062 50.3693 127.062 50.4183 127.062 50.4688C126.818 50.4688 126.573 50.4688 126.32 50.4688C126.32 50.4198 126.32 50.3708 126.32 50.3203Z" fill="#5A4FCF"/>
<path d="M134.188 49.5781C134.432 49.5781 134.677 49.5781 134.93 49.5781C134.93 49.6271 134.93 49.6761 134.93 49.7266C134.685 49.7266 134.44 49.7266 134.188 49.7266C134.188 49.6776 134.188 49.6286 134.188 49.5781Z" fill="#5A4FCF"/>
<path d="M162.094 39.3359C162.143 39.3359 162.192 39.3359 162.242 39.3359C162.242 39.5809 162.242 39.8258 162.242 40.0781C162.193 40.0781 162.144 40.0781 162.094 40.0781C162.094 39.8332 162.094 39.5883 162.094 39.3359Z" fill="#5A4FCF"/>
<path d="M107.023 119.641C107.617 119.789 107.617 119.789 107.617 119.789L107.023 119.641Z" fill="#5A4FCF"/>
<path d="M76 106.875C76.5938 107.023 76.5938 107.023 76.5938 107.023L76 106.875Z" fill="#000001"/>
<path d="M97.5234 82.9766C97.6704 83.197 97.6704 83.197 97.8203 83.4219C97.7223 83.4219 97.6244 83.4219 97.5234 83.4219C97.5234 83.2749 97.5234 83.128 97.5234 82.9766Z" fill="#5A4FCF"/>
<path d="M70.9531 83.2734C71.0511 83.2734 71.1491 83.2734 71.25 83.2734C71.25 83.3714 71.25 83.4694 71.25 83.5703C71.152 83.5703 71.0541 83.5703 70.9531 83.5703C70.9531 83.4723 70.9531 83.3744 70.9531 83.2734Z" fill="#5A4FCF"/>
<path d="M66.5 79.2656C66.6484 79.8594 66.6484 79.8594 66.6484 79.8594L66.5 79.2656Z" fill="#5A4FCF"/>
<path d="M138.047 51.5078C138.641 51.6562 138.641 51.6562 138.641 51.6562L138.047 51.5078Z" fill="#5A4FCF"/>
<path d="M105.688 24.9375C106.281 25.0859 106.281 25.0859 106.281 25.0859L105.688 24.9375Z" fill="#5A4FCF"/>
<path d="M73.3281 107.172C73.7734 107.32 73.7734 107.32 73.7734 107.32L73.3281 107.172Z" fill="#5A4FCF"/>
<path d="M76.1484 82.3828C76.2954 82.4563 76.2954 82.4563 76.4453 82.5312C76.2984 82.6047 76.2984 82.6047 76.1484 82.6797C76.1484 82.5817 76.1484 82.4838 76.1484 82.3828Z" fill="#5A4FCF"/>
<path d="M67.0938 61.4531C67.1427 61.5511 67.1917 61.6491 67.2422 61.75C67.1442 61.701 67.0463 61.652 66.9453 61.6016C66.9943 61.5526 67.0433 61.5036 67.0938 61.4531Z" fill="#5A4FCF"/>
<path d="M117.414 57.1484C117.463 57.2464 117.512 57.3444 117.562 57.4453C117.465 57.3963 117.367 57.3473 117.266 57.2969C117.315 57.2479 117.364 57.1989 117.414 57.1484Z" fill="#5A4FCF"/>
<path d="M154.969 51.9531C155.116 52.0266 155.116 52.0266 155.266 52.1016C155.119 52.175 155.119 52.175 154.969 52.25C154.969 52.152 154.969 52.0541 154.969 51.9531Z" fill="#5A4FCF"/>
<path d="M133.445 49.5781C133.891 49.7266 133.891 49.7266 133.891 49.7266L133.445 49.5781Z" fill="#5A4FCF"/>
<path d="M154.523 35.1797C154.969 35.3281 154.969 35.3281 154.969 35.3281L154.523 35.1797Z" fill="#5A4FCF"/>
<path d="M153.781 30.875C154.227 31.0234 154.227 31.0234 154.227 31.0234L153.781 30.875Z" fill="#5A4FCF"/>
<path d="M125.578 26.125C126.023 26.2734 126.023 26.2734 126.023 26.2734L125.578 26.125Z" fill="#5A4FCF"/>
<path d="M161.797 145.32C162.094 145.469 162.094 145.469 162.094 145.469L161.797 145.32Z" fill="#757576"/>
<path d="M161.797 141.758C162.094 141.906 162.094 141.906 162.094 141.906L161.797 141.758Z" fill="#686869"/>
<path d="M161.797 138.195C162.094 138.344 162.094 138.344 162.094 138.344L161.797 138.195Z" fill="#5B5A5B"/>
<path d="M100.641 118.156C100.938 118.305 100.938 118.305 100.938 118.305L100.641 118.156Z" fill="#5A4FCF"/>
<path d="M132.406 116.078C132.703 116.227 132.703 116.227 132.703 116.227L132.406 116.078Z" fill="#5A4FCF"/>
<path d="M138.344 112.961C138.641 113.109 138.641 113.109 138.641 113.109L138.344 112.961Z" fill="#5A4FCF"/>
<path d="M77.9297 111.477C78.2266 111.625 78.2266 111.625 78.2266 111.625L77.9297 111.477Z" fill="#5A4FCF"/>
<path d="M75.4062 107.023C75.7031 107.172 75.7031 107.172 75.7031 107.172L75.4062 107.023Z" fill="#5A4FCF"/>
<path d="M161.797 103.758C162.094 103.906 162.094 103.906 162.094 103.906L161.797 103.758Z" fill="#0B0B0C"/>
<path d="M150.516 102.273C150.812 102.422 150.812 102.422 150.812 102.422L150.516 102.273Z" fill="#5A4FCF"/>
<path d="M118.75 87.875C119.047 88.0234 119.047 88.0234 119.047 88.0234L118.75 87.875Z" fill="#5A4FCF"/>
<path d="M161.797 83.5703C162.094 83.7188 162.094 83.7188 162.094 83.7188L161.797 83.5703Z" fill="#000100"/>
<path d="M126.617 83.4219C126.914 83.5703 126.914 83.5703 126.914 83.5703L126.617 83.4219Z" fill="#5A4FCF"/>
<path d="M161.797 82.3828C162.094 82.5312 162.094 82.5312 162.094 82.5312L161.797 82.3828Z" fill="#5A4FCF"/>
<path d="M66.9453 81.7891C67.2422 81.9375 67.2422 81.9375 67.2422 81.9375L66.9453 81.7891Z" fill="#5A4FCF"/>
<path d="M137.008 79.8594C137.305 80.0078 137.305 80.0078 137.305 80.0078L137.008 79.8594Z" fill="#5A4FCF"/>
<path d="M161.797 78.8203C162.094 78.9688 162.094 78.9688 162.094 78.9688L161.797 78.8203Z" fill="#5A4FCF"/>
<path d="M161.797 74.0703C162.094 74.2188 162.094 74.2188 162.094 74.2188L161.797 74.0703Z" fill="#5A4FCF"/>
<path d="M65.6094 71.8438C65.9062 71.9922 65.9062 71.9922 65.9062 71.9922L65.6094 71.8438Z" fill="#5A4FCF"/>
<path d="M137.305 69.4688C137.602 69.6172 137.602 69.6172 137.602 69.6172L137.305 69.4688Z" fill="#5A4FCF"/>
<path d="M136.711 69.3203C137.008 69.4688 137.008 69.4688 137.008 69.4688L136.711 69.3203Z" fill="#000100"/>
<path d="M132.703 69.3203C133 69.4688 133 69.4688 133 69.4688L132.703 69.3203Z" fill="#5A4FCF"/>
<path d="M94.1094 67.6875C94.4062 67.8359 94.4062 67.8359 94.4062 67.8359L94.1094 67.6875Z" fill="#5A4FCF"/>
<path d="M140.125 50.7656C140.422 50.9141 140.422 50.9141 140.422 50.9141L140.125 50.7656Z" fill="#000100"/>
<path d="M131.219 49.7266C131.516 49.875 131.516 49.875 131.516 49.875L131.219 49.7266Z" fill="#5A4FCF"/>
<path d="M161.797 40.8203C162.094 40.9688 162.094 40.9688 162.094 40.9688L161.797 40.8203Z" fill="#5A4FCF"/>
<path d="M162.094 40.5234C162.391 40.6719 162.391 40.6719 162.391 40.6719L162.094 40.5234Z" fill="#5A4FCF"/>
<path d="M150.07 31.6172C150.367 31.7656 150.367 31.7656 150.367 31.7656L150.07 31.6172Z" fill="#5A4FCF"/>
<path d="M91.7344 29.6875C92.0312 29.8359 92.0312 29.8359 92.0312 29.8359L91.7344 29.6875Z" fill="#5A4FCF"/>
<path d="M132.703 28.6484C133 28.7969 133 28.7969 133 28.7969L132.703 28.6484Z" fill="#5A4FCF"/>
<path d="M126.766 26.4219C127.062 26.5703 127.062 26.5703 127.062 26.5703L126.766 26.4219Z" fill="#5A4FCF"/>
<path d="M120.383 24.9375C120.68 25.0859 120.68 25.0859 120.68 25.0859L120.383 24.9375Z" fill="#5A4FCF"/>
<path d="M155.752 51.5551C155.462 51.8698 155.294 52.0728 155.261 52.1426C155.223 52.2231 155.183 52.2922 155.067 52.4572C155.007 52.5432 154.961 52.5722 154.951 52.5723C154.945 52.5723 154.96 52.5472 155.06 52.421C155.159 52.2949 155.348 52.062 155.453 51.9358C155.571 51.7943 155.596 51.7745 155.61 51.7587C155.624 51.7439 155.559 51.8685 155.394 52.1583C155.301 52.3217 155.217 52.5331 155.154 52.7077C155.091 52.8824 155.06 53.0177 155.036 53.2526C155.012 53.4875 154.996 53.8179 154.992 54.0668C154.989 54.3157 154.998 54.473 155.006 54.5729C155.018 54.7109 155.027 54.7716 155.03 54.8301C155.035 54.9174 155.046 55.0664 155.042 55.2409C155.04 55.3181 155.027 55.3714 154.994 55.4745C154.961 55.5776 154.904 55.7286 154.867 55.8238C154.787 56.0294 154.764 56.1383 154.763 56.1671C154.763 56.2443 154.884 56.0212 154.929 55.9782C154.968 55.9397 154.995 55.913 155.005 55.905C155.033 55.8815 154.986 55.9857 154.97 56.0351C154.957 56.0748 154.945 56.1129 154.927 56.1543C154.901 56.2161 154.868 56.237 154.87 56.2481C154.879 56.3149 154.976 56.2023 155.002 56.1832C155.01 56.177 155.014 56.1892 155.013 56.2035C155.004 56.2876 154.929 56.3576 154.897 56.3927C154.864 56.4287 154.827 56.4531 154.789 56.4659C154.751 56.4818 154.719 56.5134 154.692 56.55C154.684 56.558 154.675 56.5643 154.665 56.5708" stroke="white" stroke-linecap="round"/>
<path d="M155.047 55.5508C155.048 55.5391 155.066 55.5158 155.12 55.4799C155.133 55.4709 155.147 55.4688 155.155 55.4681C155.164 55.4674 155.168 55.47 155.171 55.4733C155.181 55.486 155.187 55.5012 155.196 55.5162C155.207 55.5352 155.21 55.5546 155.212 55.5904C155.215 55.6292 155.216 55.6757 155.214 55.6946C155.212 55.7127 155.207 55.7433 155.204 55.7669C155.201 55.7891 155.195 55.8046 155.186 55.8209C155.176 55.8376 155.173 55.8554 155.165 55.873C155.15 55.903 155.138 55.914 155.132 55.9329C155.127 55.951 155.115 55.9648 155.106 55.9804C155.098 55.9951 155.095 56.0116 155.083 56.024C155.072 56.0359 155.072 56.0572 155.062 56.0742C155.052 56.0908 155.048 56.1015 155.045 56.1054C155.037 56.1146 155.064 56.0821 155.074 56.0665C155.082 56.0523 155.098 56.0417 155.106 56.0274C155.115 56.0118 155.125 56.0001 155.131 55.9838C155.139 55.9659 155.143 55.9493 155.155 55.9304C155.164 55.915 155.171 55.8985 155.177 55.8842C155.184 55.8699 155.197 55.8555 155.211 55.8399C155.225 55.8242 155.238 55.8112 155.25 55.7969C155.262 55.7826 155.272 55.7696 155.284 55.7604C155.3 55.7486 155.312 55.7266 155.327 55.7142C155.341 55.7023 155.353 55.6837 155.365 55.668C155.379 55.6481 155.396 55.6329 155.409 55.6237C155.423 55.614 155.431 55.5938 155.444 55.5814C155.456 55.5701 155.466 55.5548 155.478 55.5378C155.497 55.5129 155.513 55.5001 155.526 55.4877C155.535 55.4753 155.546 55.4688 155.551 55.4604C155.555 55.4558 155.559 55.4506 155.566 55.4414" stroke="white" stroke-linecap="round"/>
<path d="M56.28 178.56C52.8667 178.56 50.1467 177.6 48.12 175.68C46.0933 173.733 45.08 170.947 45.08 167.32V160.68C45.08 157.053 46.0933 154.28 48.12 152.36C50.1467 150.413 52.8667 149.44 56.28 149.44C59.6933 149.44 62.32 150.373 64.16 152.24C66.0267 154.107 66.96 156.667 66.96 159.92V160.16H62.24V159.8C62.24 158.04 61.7467 156.6 60.76 155.48C59.8 154.333 58.3067 153.76 56.28 153.76C54.3067 153.76 52.7467 154.373 51.6 155.6C50.48 156.8 49.92 158.467 49.92 160.6V167.4C49.92 169.507 50.48 171.173 51.6 172.4C52.7467 173.627 54.3067 174.24 56.28 174.24C58.3067 174.24 59.8 173.68 60.76 172.56C61.7467 171.413 62.24 169.96 62.24 168.2V167.52H66.96V168.08C66.96 171.333 66.0267 173.893 64.16 175.76C62.32 177.627 59.6933 178.56 56.28 178.56ZM80.9831 178.56C79.0098 178.56 77.2365 178.16 75.6631 177.36C74.1165 176.533 72.8898 175.373 71.9831 173.88C71.1031 172.36 70.6631 170.547 70.6631 168.44V167.8C70.6631 165.693 71.1031 163.88 71.9831 162.36C72.8898 160.84 74.1165 159.68 75.6631 158.88C77.2365 158.08 79.0098 157.68 80.9831 157.68C82.9565 157.68 84.7165 158.08 86.2631 158.88C87.8098 159.68 89.0231 160.84 89.9031 162.36C90.8098 163.88 91.2631 165.693 91.2631 167.8V168.44C91.2631 170.547 90.8098 172.36 89.9031 173.88C89.0231 175.373 87.8098 176.533 86.2631 177.36C84.7165 178.16 82.9565 178.56 80.9831 178.56ZM80.9831 174.48C82.6631 174.48 84.0365 173.947 85.1031 172.88C86.1698 171.787 86.7031 170.267 86.7031 168.32V167.92C86.7031 165.973 86.1698 164.467 85.1031 163.4C84.0365 162.307 82.6631 161.76 80.9831 161.76C79.3031 161.76 77.9298 162.307 76.8631 163.4C75.7965 164.467 75.2631 165.973 75.2631 167.92V168.32C75.2631 170.267 75.7965 171.787 76.8631 172.88C77.9298 173.947 79.3031 174.48 80.9831 174.48ZM104.314 178.56C101.754 178.56 99.6477 178 97.9944 176.88C96.341 175.76 95.341 174.12 94.9944 171.96L99.2344 170.88C99.421 171.893 99.7544 172.693 100.234 173.28C100.714 173.867 101.301 174.28 101.994 174.52C102.714 174.76 103.488 174.88 104.314 174.88C105.568 174.88 106.501 174.653 107.114 174.2C107.754 173.747 108.074 173.173 108.074 172.48C108.074 171.76 107.768 171.227 107.154 170.88C106.568 170.533 105.661 170.24 104.434 170L103.194 169.8C101.834 169.533 100.594 169.173 99.4744 168.72C98.3544 168.24 97.4477 167.6 96.7544 166.8C96.0877 165.973 95.7544 164.933 95.7544 163.68C95.7544 161.76 96.461 160.28 97.8744 159.24C99.3144 158.2 101.194 157.68 103.514 157.68C105.728 157.68 107.554 158.173 108.994 159.16C110.434 160.147 111.368 161.467 111.794 163.12L107.554 164.4C107.341 163.28 106.874 162.493 106.154 162.04C105.434 161.56 104.554 161.32 103.514 161.32C102.448 161.32 101.621 161.507 101.034 161.88C100.474 162.253 100.194 162.787 100.194 163.48C100.194 164.173 100.488 164.693 101.074 165.04C101.661 165.387 102.448 165.64 103.434 165.8L104.674 166.04C106.141 166.307 107.461 166.653 108.634 167.08C109.834 167.507 110.781 168.12 111.474 168.92C112.168 169.72 112.514 170.8 112.514 172.16C112.514 174.213 111.768 175.8 110.274 176.92C108.808 178.013 106.821 178.56 104.314 178.56ZM117.17 178V158.24H121.69V160.44H122.37C122.717 159.773 123.29 159.187 124.09 158.68C124.917 158.147 126.01 157.88 127.37 157.88C128.81 157.88 129.97 158.173 130.85 158.76C131.73 159.347 132.397 160.093 132.85 161H133.49C133.943 160.093 134.597 159.347 135.45 158.76C136.303 158.173 137.517 157.88 139.09 157.88C140.317 157.88 141.423 158.147 142.41 158.68C143.423 159.213 144.223 160 144.81 161.04C145.423 162.08 145.73 163.373 145.73 164.92V178H141.13V165.24C141.13 164.093 140.823 163.227 140.21 162.64C139.597 162.027 138.743 161.72 137.65 161.72C136.45 161.72 135.49 162.12 134.77 162.92C134.077 163.693 133.73 164.813 133.73 166.28V178H129.17V165.24C129.17 164.093 128.863 163.227 128.25 162.64C127.637 162.027 126.783 161.72 125.69 161.72C124.463 161.72 123.503 162.12 122.81 162.92C122.117 163.693 121.77 164.813 121.77 166.28V178H117.17ZM151.389 178V158.24H155.989V178H151.389ZM153.669 155.72C152.842 155.72 152.122 155.453 151.509 154.92C150.922 154.36 150.629 153.627 150.629 152.72C150.629 151.813 150.922 151.093 151.509 150.56C152.122 150 152.842 149.72 153.669 149.72C154.549 149.72 155.269 150 155.829 150.56C156.415 151.093 156.709 151.813 156.709 152.72C156.709 153.627 156.415 154.36 155.829 154.92C155.269 155.453 154.549 155.72 153.669 155.72ZM171.058 178.56C169.138 178.56 167.405 178.16 165.858 177.36C164.312 176.56 163.085 175.4 162.178 173.88C161.298 172.36 160.858 170.533 160.858 168.4V167.84C160.858 165.707 161.298 163.88 162.178 162.36C163.085 160.84 164.312 159.68 165.858 158.88C167.405 158.08 169.138 157.68 171.058 157.68C172.952 157.68 174.565 158.013 175.898 158.68C177.258 159.347 178.352 160.267 179.178 161.44C180.005 162.587 180.538 163.88 180.778 165.32L176.338 166.24C176.232 165.413 175.978 164.667 175.578 164C175.178 163.307 174.605 162.76 173.858 162.36C173.138 161.96 172.245 161.76 171.178 161.76C170.085 161.76 169.098 162 168.218 162.48C167.365 162.933 166.685 163.627 166.178 164.56C165.698 165.493 165.458 166.613 165.458 167.92V168.32C165.458 169.627 165.698 170.747 166.178 171.68C166.685 172.587 167.365 173.28 168.218 173.76C169.098 174.24 170.085 174.48 171.178 174.48C172.805 174.48 174.032 174.067 174.858 173.24C175.712 172.387 176.245 171.293 176.458 169.96L180.898 171C180.578 172.387 180.005 173.653 179.178 174.8C178.352 175.947 177.258 176.867 175.898 177.56C174.565 178.227 172.952 178.56 171.058 178.56Z" fill="black"/>
<path d="M50.9806 205.336C49.2686 205.336 47.9086 204.872 46.9006 203.944C45.9086 203 45.4126 201.672 45.4126 199.96V198.448H48.2926V199.96C48.2926 200.792 48.5166 201.448 48.9646 201.928C49.4126 202.408 50.0606 202.648 50.9086 202.648C51.7086 202.648 52.3086 202.408 52.7086 201.928C53.1246 201.448 53.3326 200.792 53.3326 199.96V190.816H50.4526V188.2H58.1086V190.816H56.2366V199.96C56.2366 201.704 55.7726 203.04 54.8446 203.968C53.9166 204.88 52.6286 205.336 50.9806 205.336ZM72.6355 205.336C71.4515 205.336 70.3875 205.096 69.4435 204.616C68.5155 204.12 67.7795 203.424 67.2355 202.528C66.7075 201.616 66.4435 200.528 66.4435 199.264V198.88C66.4435 197.616 66.7075 196.528 67.2355 195.616C67.7795 194.704 68.5155 194.008 69.4435 193.528C70.3875 193.048 71.4515 192.808 72.6355 192.808C73.8195 192.808 74.8755 193.048 75.8035 193.528C76.7315 194.008 77.4595 194.704 77.9875 195.616C78.5315 196.528 78.8035 197.616 78.8035 198.88V199.264C78.8035 200.528 78.5315 201.616 77.9875 202.528C77.4595 203.424 76.7315 204.12 75.8035 204.616C74.8755 205.096 73.8195 205.336 72.6355 205.336ZM72.6355 202.888C73.6435 202.888 74.4675 202.568 75.1075 201.928C75.7475 201.272 76.0675 200.36 76.0675 199.192V198.952C76.0675 197.784 75.7475 196.88 75.1075 196.24C74.4675 195.584 73.6435 195.256 72.6355 195.256C71.6275 195.256 70.8035 195.584 70.1635 196.24C69.5235 196.88 69.2035 197.784 69.2035 198.952V199.192C69.2035 200.36 69.5235 201.272 70.1635 201.928C70.8035 202.568 71.6275 202.888 72.6355 202.888ZM93.2343 205.192C92.3223 205.192 91.5143 204.992 90.8103 204.592C90.1063 204.176 89.5623 203.6 89.1783 202.864C88.7943 202.112 88.6023 201.24 88.6023 200.248V193.144H91.3383V200.032C91.3383 200.992 91.5703 201.704 92.0343 202.168C92.5143 202.632 93.1863 202.864 94.0503 202.864C95.0263 202.864 95.7943 202.544 96.3543 201.904C96.9303 201.264 97.2183 200.344 97.2183 199.144V193.144H99.9543V205H97.2663V203.344H96.8583C96.6503 203.776 96.2663 204.192 95.7063 204.592C95.1623 204.992 94.3383 205.192 93.2343 205.192ZM110.424 205V193.144H113.136V194.512H113.544C113.72 194.016 114.016 193.656 114.432 193.432C114.848 193.208 115.344 193.096 115.92 193.096H117.36V195.544H115.872C115.072 195.544 114.424 195.76 113.928 196.192C113.432 196.608 113.184 197.256 113.184 198.136V205H110.424ZM126.759 205V193.144H129.471V194.8H129.879C130.087 194.352 130.463 193.928 131.007 193.528C131.551 193.128 132.375 192.928 133.479 192.928C134.391 192.928 135.199 193.136 135.903 193.552C136.607 193.968 137.151 194.544 137.535 195.28C137.935 196.016 138.135 196.888 138.135 197.896V205H135.375V198.112C135.375 197.152 135.135 196.44 134.655 195.976C134.191 195.496 133.527 195.256 132.663 195.256C131.687 195.256 130.919 195.584 130.359 196.24C129.799 196.88 129.519 197.8 129.519 199V205H126.759ZM153.909 205.336C152.725 205.336 151.677 205.088 150.765 204.592C149.869 204.08 149.165 203.368 148.653 202.456C148.157 201.528 147.909 200.448 147.909 199.216V198.928C147.909 197.68 148.157 196.6 148.653 195.688C149.149 194.776 149.845 194.072 150.741 193.576C151.637 193.064 152.669 192.808 153.837 192.808C154.989 192.808 155.997 193.064 156.861 193.576C157.725 194.072 158.397 194.776 158.877 195.688C159.357 196.6 159.597 197.664 159.597 198.88V199.864H150.693C150.725 200.792 151.053 201.536 151.677 202.096C152.301 202.656 153.069 202.936 153.981 202.936C154.877 202.936 155.541 202.744 155.973 202.36C156.405 201.96 156.733 201.512 156.957 201.016L159.237 202.192C159.013 202.624 158.685 203.088 158.253 203.584C157.837 204.064 157.277 204.48 156.573 204.832C155.869 205.168 154.981 205.336 153.909 205.336ZM150.717 197.776H156.789C156.725 196.992 156.421 196.368 155.877 195.904C155.349 195.44 154.661 195.208 153.813 195.208C152.933 195.208 152.229 195.44 151.701 195.904C151.173 196.368 150.845 196.992 150.717 197.776ZM170.71 209.8V207.4H177.262C177.71 207.4 177.934 207.16 177.934 206.68V203.368H177.526C177.398 203.656 177.19 203.944 176.902 204.232C176.614 204.504 176.23 204.736 175.75 204.928C175.27 205.104 174.662 205.192 173.926 205.192C173.014 205.192 172.206 204.992 171.502 204.592C170.798 204.176 170.254 203.6 169.87 202.864C169.486 202.112 169.294 201.24 169.294 200.248V193.144H172.03V200.032C172.03 200.992 172.262 201.704 172.726 202.168C173.206 202.632 173.878 202.864 174.742 202.864C175.718 202.864 176.486 202.544 177.046 201.904C177.622 201.264 177.91 200.344 177.91 199.144V193.144H180.646V207.256C180.646 208.04 180.422 208.656 179.974 209.104C179.526 209.568 178.918 209.8 178.15 209.8H170.71Z" fill="#5A4FCF"/>
<path d="M130.599 220.554V220.482C130.599 220.174 130.661 219.91 130.785 219.69C130.913 219.47 131.083 219.3 131.295 219.18C131.507 219.06 131.743 219 132.003 219C132.323 219 132.571 219.064 132.747 219.192C132.927 219.316 133.059 219.458 133.143 219.618H133.215V219.084H133.551V222.744C133.551 222.888 133.513 223 133.437 223.08C133.361 223.16 133.245 223.2 133.089 223.2H131.097V222.876H133.017C133.141 222.876 133.203 222.816 133.203 222.696V221.442H133.131C133.079 221.538 133.005 221.632 132.909 221.724C132.817 221.816 132.697 221.892 132.549 221.952C132.401 222.008 132.219 222.036 132.003 222.036C131.743 222.036 131.505 221.976 131.289 221.856C131.077 221.736 130.909 221.566 130.785 221.346C130.661 221.122 130.599 220.858 130.599 220.554ZM132.087 221.712C132.419 221.712 132.687 221.608 132.891 221.4C133.099 221.192 133.203 220.906 133.203 220.542V220.494C133.203 220.126 133.099 219.84 132.891 219.636C132.687 219.428 132.419 219.324 132.087 219.324C131.759 219.324 131.491 219.428 131.283 219.636C131.075 219.84 130.971 220.126 130.971 220.494V220.542C130.971 220.906 131.075 221.192 131.283 221.4C131.491 221.608 131.759 221.712 132.087 221.712ZM136.938 222.084C136.734 222.084 136.548 222.05 136.38 221.982C136.216 221.91 136.086 221.806 135.99 221.67C135.894 221.534 135.846 221.37 135.846 221.178C135.846 220.982 135.894 220.82 135.99 220.692C136.086 220.564 136.216 220.468 136.38 220.404C136.544 220.34 136.726 220.308 136.926 220.308H137.994V220.074C137.994 219.838 137.926 219.654 137.79 219.522C137.654 219.39 137.456 219.324 137.196 219.324C136.94 219.324 136.736 219.388 136.584 219.516C136.436 219.64 136.336 219.808 136.284 220.02L135.936 219.918C135.984 219.746 136.06 219.592 136.164 219.456C136.268 219.316 136.406 219.206 136.578 219.126C136.75 219.042 136.956 219 137.196 219C137.564 219 137.848 219.096 138.048 219.288C138.252 219.48 138.354 219.748 138.354 220.092V221.508C138.354 221.628 138.41 221.688 138.522 221.688H138.804V222H138.42C138.296 222 138.198 221.964 138.126 221.892C138.054 221.816 138.018 221.714 138.018 221.586V221.544H137.958C137.906 221.632 137.838 221.718 137.754 221.802C137.674 221.886 137.568 221.954 137.436 222.006C137.304 222.058 137.138 222.084 136.938 222.084ZM136.962 221.76C137.27 221.76 137.518 221.668 137.706 221.484C137.898 221.296 137.994 221.032 137.994 220.692V220.62H136.932C136.724 220.62 136.55 220.666 136.41 220.758C136.274 220.846 136.206 220.984 136.206 221.172C136.206 221.36 136.276 221.506 136.416 221.61C136.56 221.71 136.742 221.76 136.962 221.76ZM140.93 222V219.084H141.278V219.468H141.35C141.41 219.36 141.506 219.26 141.638 219.168C141.77 219.072 141.958 219.024 142.202 219.024C142.438 219.024 142.628 219.078 142.772 219.186C142.92 219.294 143.026 219.424 143.09 219.576H143.162C143.23 219.424 143.336 219.294 143.48 219.186C143.624 219.078 143.826 219.024 144.086 219.024C144.286 219.024 144.46 219.066 144.608 219.15C144.756 219.23 144.872 219.344 144.956 219.492C145.04 219.636 145.082 219.806 145.082 220.002V222H144.722V220.038C144.722 219.83 144.658 219.664 144.53 219.54C144.406 219.412 144.23 219.348 144.002 219.348C143.77 219.348 143.576 219.424 143.42 219.576C143.264 219.724 143.186 219.942 143.186 220.23V222H142.826V220.038C142.826 219.83 142.762 219.664 142.634 219.54C142.51 219.412 142.334 219.348 142.106 219.348C141.874 219.348 141.68 219.424 141.524 219.576C141.368 219.724 141.29 219.942 141.29 220.23V222H140.93ZM148.888 222.084C148.588 222.084 148.326 222.022 148.102 221.898C147.882 221.77 147.71 221.592 147.586 221.364C147.462 221.136 147.4 220.874 147.4 220.578V220.506C147.4 220.206 147.462 219.944 147.586 219.72C147.71 219.492 147.88 219.316 148.096 219.192C148.316 219.064 148.566 219 148.846 219C149.118 219 149.358 219.058 149.566 219.174C149.778 219.286 149.944 219.45 150.064 219.666C150.184 219.878 150.244 220.132 150.244 220.428V220.62H147.76C147.772 220.984 147.882 221.266 148.09 221.466C148.302 221.662 148.568 221.76 148.888 221.76C149.16 221.76 149.37 221.698 149.518 221.574C149.67 221.45 149.786 221.298 149.866 221.118L150.19 221.262C150.13 221.394 150.046 221.524 149.938 221.652C149.834 221.776 149.698 221.88 149.53 221.964C149.362 222.044 149.148 222.084 148.888 222.084ZM147.766 220.308H149.878C149.862 219.992 149.76 219.75 149.572 219.582C149.384 219.41 149.142 219.324 148.846 219.324C148.554 219.324 148.312 219.41 148.12 219.582C147.928 219.75 147.81 219.992 147.766 220.308ZM156.714 222.084C156.362 222.084 156.06 222 155.808 221.832C155.56 221.664 155.408 221.386 155.352 220.998L155.706 220.932C155.738 221.144 155.802 221.312 155.898 221.436C155.998 221.556 156.118 221.642 156.258 221.694C156.402 221.746 156.554 221.772 156.714 221.772C156.954 221.772 157.146 221.724 157.29 221.628C157.438 221.528 157.512 221.392 157.512 221.22C157.512 221.044 157.442 220.922 157.302 220.854C157.166 220.786 156.984 220.732 156.756 220.692L156.48 220.644C156.296 220.612 156.13 220.564 155.982 220.5C155.834 220.432 155.716 220.342 155.628 220.23C155.544 220.118 155.502 219.978 155.502 219.81C155.502 219.558 155.6 219.36 155.796 219.216C155.996 219.072 156.26 219 156.588 219C156.92 219 157.186 219.076 157.386 219.228C157.59 219.376 157.718 219.592 157.77 219.876L157.434 219.948C157.394 219.716 157.298 219.552 157.146 219.456C156.998 219.36 156.812 219.312 156.588 219.312C156.368 219.312 156.192 219.354 156.06 219.438C155.928 219.522 155.862 219.646 155.862 219.81C155.862 219.97 155.922 220.088 156.042 220.164C156.162 220.236 156.326 220.29 156.534 220.326L156.81 220.374C157.01 220.406 157.19 220.454 157.35 220.518C157.51 220.578 157.636 220.664 157.728 220.776C157.824 220.888 157.872 221.036 157.872 221.22C157.872 221.496 157.768 221.71 157.56 221.862C157.352 222.01 157.07 222.084 156.714 222.084ZM161.152 222C160.996 222 160.878 221.96 160.798 221.88C160.722 221.8 160.684 221.688 160.684 221.544V219.408H159.748V219.084H160.684V217.992H161.044V219.084H162.064V219.408H161.044V221.496C161.044 221.616 161.104 221.676 161.224 221.676H161.908V222H161.152ZM165.429 222.06C165.221 222.06 165.027 222.016 164.847 221.928C164.671 221.84 164.529 221.708 164.421 221.532C164.317 221.352 164.265 221.128 164.265 220.86V219.084H164.625V220.836C164.625 221.152 164.705 221.382 164.865 221.526C165.025 221.666 165.239 221.736 165.507 221.736C165.807 221.736 166.057 221.638 166.257 221.442C166.457 221.242 166.557 220.942 166.557 220.542V219.084H166.917V222H166.569V221.46H166.497C166.425 221.616 166.307 221.756 166.143 221.88C165.979 222 165.741 222.06 165.429 222.06ZM170.675 222.084C170.415 222.084 170.179 222.024 169.967 221.904C169.755 221.78 169.585 221.606 169.457 221.382C169.333 221.154 169.271 220.886 169.271 220.578V220.506C169.271 220.198 169.333 219.932 169.457 219.708C169.581 219.48 169.749 219.306 169.961 219.186C170.177 219.062 170.415 219 170.675 219C170.891 219 171.073 219.03 171.221 219.09C171.369 219.146 171.489 219.22 171.581 219.312C171.677 219.4 171.751 219.494 171.803 219.594H171.875V217.8H172.235V222H171.887V221.466H171.815C171.731 221.626 171.599 221.77 171.419 221.898C171.243 222.022 170.995 222.084 170.675 222.084ZM170.759 221.76C171.091 221.76 171.359 221.654 171.563 221.442C171.771 221.23 171.875 220.938 171.875 220.566V220.518C171.875 220.146 171.771 219.854 171.563 219.642C171.359 219.43 171.091 219.324 170.759 219.324C170.431 219.324 170.163 219.43 169.955 219.642C169.747 219.854 169.643 220.146 169.643 220.518V220.566C169.643 220.938 169.747 221.23 169.955 221.442C170.163 221.654 170.431 221.76 170.759 221.76ZM174.734 222V219.084H175.094V222H174.734ZM174.914 218.58C174.826 218.58 174.752 218.55 174.692 218.49C174.632 218.43 174.602 218.356 174.602 218.268C174.602 218.176 174.632 218.102 174.692 218.046C174.752 217.986 174.826 217.956 174.914 217.956C175.006 217.956 175.08 217.986 175.136 218.046C175.196 218.102 175.226 218.176 175.226 218.268C175.226 218.356 175.196 218.43 175.136 218.49C175.08 218.55 175.006 218.58 174.914 218.58ZM178.924 222.084C178.628 222.084 178.368 222.022 178.144 221.898C177.924 221.77 177.752 221.594 177.628 221.37C177.508 221.142 177.448 220.878 177.448 220.578V220.506C177.448 220.206 177.508 219.944 177.628 219.72C177.752 219.492 177.924 219.316 178.144 219.192C178.368 219.064 178.628 219 178.924 219C179.22 219 179.478 219.064 179.698 219.192C179.922 219.316 180.094 219.492 180.214 219.72C180.338 219.944 180.4 220.206 180.4 220.506V220.578C180.4 220.878 180.338 221.142 180.214 221.37C180.094 221.594 179.922 221.77 179.698 221.898C179.478 222.022 179.22 222.084 178.924 222.084ZM178.924 221.76C179.268 221.76 179.54 221.652 179.74 221.436C179.94 221.216 180.04 220.926 180.04 220.566V220.518C180.04 220.158 179.94 219.87 179.74 219.654C179.54 219.434 179.268 219.324 178.924 219.324C178.584 219.324 178.312 219.434 178.108 219.654C177.908 219.87 177.808 220.158 177.808 220.518V220.566C177.808 220.926 177.908 221.216 178.108 221.436C178.312 221.652 178.584 221.76 178.924 221.76Z" fill="black"/>
</svg>
