<svg width="136" height="145" viewBox="0 0 136 145" fill="none" xmlns="http://www.w3.org/2000/svg">
<path d="M69.2801 24.5485C69.9946 24.6114 70.7083 24.6663 71.4243 24.7096C71.6069 24.7212 71.7896 24.7328 71.9777 24.7447C72.3519 24.7683 72.7261 24.7911 73.1003 24.8131C74.0514 24.8748 74.9121 24.976 75.8281 25.2344C76.0879 25.2898 76.3481 25.3429 76.6086 25.3944C83.5032 26.7668 90.3378 29.1908 95.935 33.5562C96.0596 33.6511 96.1842 33.746 96.3125 33.8438C96.4353 33.9678 96.5582 34.0918 96.6848 34.2195C97.4366 34.5357 97.8735 34.2799 98.6118 33.9911C98.7868 33.918 98.9618 33.8449 99.1421 33.7696C99.4869 33.6314 99.8319 33.4938 100.177 33.3567C100.347 33.2884 100.516 33.2201 100.691 33.1497C101.376 32.8908 102.072 32.6863 102.777 32.4896C103.164 32.3984 103.164 32.3984 103.289 32.0625C103.428 32.07 103.567 32.0774 103.709 32.0851C104.47 32.0849 105.181 31.8831 105.915 31.7007C107.073 31.4236 108.18 31.1996 109.375 31.1719C109.375 31.0739 109.375 30.976 109.375 30.875C114.33 30.6649 114.33 30.6649 116.602 30.7822C116.754 30.7891 116.754 30.7891 116.91 30.7961C117.438 30.8282 117.681 30.8709 118.133 31.1719C118.382 31.2594 118.633 31.3424 118.884 31.4224C120.417 31.9743 121.569 32.9071 122.438 34.2891C123.85 37.3384 123.198 40.695 122.104 43.7334C121.651 44.9382 121.108 46.0862 120.506 47.2226C120.367 47.4859 120.233 47.7515 120.098 48.0172C118.881 50.3886 117.412 52.6324 115.906 54.8291C115.827 54.9448 115.748 55.0605 115.666 55.1797C115.34 55.6525 115.01 56.1164 114.66 56.5715C114.563 56.6976 114.466 56.8237 114.366 56.9536C114.285 57.0522 114.205 57.1507 114.122 57.2523C113.697 58.2533 114.355 59.7171 114.617 60.711C117.354 71.4397 116.226 82.9291 111.453 92.9219C111.381 93.0758 111.381 93.0758 111.307 93.2328C109.389 97.308 106.775 101.033 103.72 104.335C103.413 104.676 103.13 105.032 102.844 105.391C102.175 106.108 102.175 106.108 101.656 106.281C101.656 106.379 101.656 106.477 101.656 106.578C101.47 106.772 101.47 106.772 101.192 107.005C101.084 107.097 100.975 107.189 100.862 107.284C100.733 107.394 100.603 107.504 100.469 107.617C100.314 107.753 100.16 107.888 100.005 108.024C98.9992 108.906 97.9715 109.732 96.8764 110.502C96.4494 110.805 96.1611 111.036 95.8672 111.477C95.7692 111.477 95.6713 111.477 95.5703 111.477C95.1971 111.709 94.8316 111.947 94.4663 112.191C91.0671 114.413 87.4214 116.304 83.5469 117.563C83.4067 117.608 83.2666 117.654 83.1221 117.701C74.7638 120.381 66.2466 120.571 57.7188 118.602C57.6069 118.577 57.4951 118.552 57.3798 118.527C51.9809 117.337 46.8676 114.59 42.3961 111.415C42.2822 111.334 42.1684 111.254 42.0511 111.171C41.6875 110.883 41.6875 110.883 41.2865 110.468C40.8503 110.024 40.4618 109.691 39.9062 109.398C39.0624 109.408 38.3516 109.69 37.5776 109.992C37.3629 110.068 37.1477 110.143 36.9321 110.217C36.6056 110.329 36.2793 110.441 35.9541 110.557C34.948 110.914 33.9332 111.18 32.8926 111.421C32.6651 111.476 32.6651 111.476 32.433 111.532C31.7896 111.682 31.2182 111.792 30.5547 111.773C30.5057 111.871 30.4567 111.969 30.4062 112.07C30.1231 112.124 30.1231 112.124 29.7545 112.149C29.2167 112.192 28.6874 112.249 28.1542 112.331C23.6046 113.004 18.0859 113.301 14.1634 110.443C14.0373 110.343 13.9112 110.244 13.7812 110.141C13.672 110.056 13.5627 109.971 13.4502 109.884C12.4698 109.023 11.6161 107.538 11.3361 106.257C11.3102 106.167 11.2844 106.077 11.2578 105.984C11.1598 105.935 11.0619 105.886 10.9609 105.836C10.986 105.737 11.0111 105.638 11.0369 105.536C11.1074 105.106 11.1083 104.709 11.092 104.275C10.976 100.81 12.3138 97.5566 13.9297 94.5547C14.0158 94.3915 14.1019 94.2283 14.1906 94.0601C16.2536 90.2959 19.0044 86.8877 21.8123 83.6584C22.2184 83.1989 22.2184 83.1989 22.5391 82.6797C22.437 82.2577 22.3251 81.8442 22.2051 81.4273C20.0593 73.5653 20.9924 64.9151 23.5508 57.2692C23.5931 57.1425 23.6354 57.0158 23.679 56.8852C23.7169 56.7744 23.7547 56.6635 23.7938 56.5493C23.8949 56.2368 23.8949 56.2368 23.875 55.8125C23.973 55.8125 24.0709 55.8125 24.1719 55.8125C24.1979 55.7314 24.2239 55.6502 24.2507 55.5666C26.0727 49.9796 29.4005 45.1101 33.1488 40.6468C33.2979 40.4676 33.4451 40.2868 33.5902 40.1044C33.7597 39.8926 33.9376 39.6877 34.1172 39.4844C34.2152 39.4844 34.3131 39.4844 34.4141 39.4844C34.4141 39.3864 34.4141 39.2885 34.4141 39.1875C34.512 39.1875 34.61 39.1875 34.7109 39.1875C34.7473 39.1028 34.7836 39.018 34.8211 38.9307C35.4189 37.852 36.5977 37.0093 37.5312 36.2188C37.6554 36.111 37.7796 36.0033 37.9076 35.8923C41.2362 33.049 47.8232 27.6094 52.375 27.6094C52.424 27.5114 52.473 27.4135 52.5234 27.3125C52.8116 27.2122 52.8116 27.2122 53.2007 27.1177C53.874 26.9464 54.5274 26.7449 55.186 26.5239C59.11 25.2651 63.2335 24.762 67.3389 24.6641C67.6719 24.6481 67.6719 24.6481 68.0216 24.561C68.4628 24.4821 68.834 24.5063 69.2801 24.5485ZM102.129 36.3115C102.012 36.3403 101.895 36.3691 101.775 36.3987C101.21 36.5473 100.858 36.6749 100.469 37.1094C100.606 37.2238 100.744 37.3382 100.886 37.4561C101.065 37.6065 101.245 37.7569 101.424 37.9072C101.515 37.9826 101.606 38.058 101.699 38.1357C102.382 38.7086 102.382 38.7086 102.547 39.0391C102.645 39.0391 102.743 39.0391 102.844 39.0391C102.882 39.1267 102.921 39.2144 102.96 39.3046C103.154 39.6576 103.355 39.8621 103.651 40.1338C106.042 42.4861 107.87 45.5356 109.505 48.437C109.595 48.5864 109.685 48.7358 109.778 48.8898C110.338 49.9252 110.338 49.9252 110.138 50.6097C109.912 51.0373 109.663 51.4168 109.375 51.8047C109.312 51.8964 109.248 51.988 109.183 52.0825C109.02 52.3115 108.845 52.5315 108.67 52.751C108.541 52.9141 108.412 53.0772 108.283 53.2404C108.218 53.3218 108.153 53.4032 108.086 53.4871C107.829 53.8129 107.577 54.1432 107.325 54.4737C105.649 56.6728 103.865 58.7874 101.965 60.7962C101.63 61.1406 101.63 61.1406 101.508 61.6016C101.41 61.6016 101.312 61.6016 101.211 61.6016C101.002 61.8071 101.002 61.8071 100.782 62.0846C100.112 62.8728 99.3838 63.5996 98.6512 64.3292C98.4158 64.5637 98.1812 64.7991 97.9468 65.0345C97.7969 65.1842 97.647 65.3339 97.4971 65.4836C97.3622 65.6183 97.2274 65.753 97.0884 65.8917C96.7578 66.2031 96.7578 66.2031 96.4609 66.3516C96.4609 66.4496 96.4609 66.5475 96.4609 66.6485C96.3739 66.6877 96.2868 66.7269 96.1971 66.7673C95.855 66.9519 95.618 67.1502 95.3378 67.4185C95.2413 67.5099 95.1447 67.6014 95.0453 67.6956C94.9461 67.7909 94.8468 67.8862 94.7446 67.9844C94.5468 68.1733 94.3487 68.362 94.1503 68.5503C94.0195 68.6757 94.0195 68.6757 93.8861 68.8037C93.6406 69.0235 93.6406 69.0235 93.1953 69.3203C92.6897 69.2881 92.2466 69.1982 91.7602 69.0565C90.0526 68.567 88.4113 68.6516 86.8125 69.4688C85.4093 70.3424 84.4427 71.5828 83.9922 73.1797C83.8762 73.7529 83.8399 74.1904 83.918 74.7719C84.1072 76.2477 84.1072 76.2477 83.6374 76.8648C83.0464 77.4306 82.3679 77.8696 81.6758 78.3015C81.3396 78.5114 81.0119 78.73 80.6848 78.9537C78.5743 80.3817 76.3209 81.582 74.0298 82.6922C73.7632 82.8217 73.4977 82.9536 73.2322 83.0856C68.0923 85.5784 61.9492 87.6194 56.2651 85.9737C54.7449 85.4434 53.5676 84.3939 52.8203 82.9766C51.7722 80.7489 51.9183 78.6002 52.7217 76.3172C54.3135 72.0324 57.7352 68.0064 61.2812 65.1641C61.4922 64.9942 61.4922 64.9942 61.7074 64.8208C65.5898 61.7201 69.7168 58.9938 74.2035 56.842C74.4999 56.6994 74.795 56.5541 75.09 56.4086C77.4764 55.2441 79.9651 54.3717 82.48 53.5303C82.5761 53.4981 82.6723 53.4658 82.7713 53.4326C83.7651 53.1004 84.752 52.7818 85.7734 52.5469C85.8709 52.5221 85.9684 52.4974 86.0689 52.4718C87.8009 52.0458 89.5875 51.8836 91.3615 51.7523C91.5715 51.7363 91.5715 51.7363 91.7857 51.7201C91.911 51.7112 92.0362 51.7024 92.1653 51.6933C92.4536 51.686 92.4536 51.686 92.6016 51.5078C92.6016 51.6058 92.6016 51.7038 92.6016 51.8047C92.7225 51.8259 92.7225 51.8259 92.8458 51.8474C94.9676 52.2257 96.7847 52.6539 98.5449 53.964C98.8264 54.1856 98.8264 54.1856 99.1328 54.3281C98.6778 52.6636 97.7848 51.7922 96.3125 50.9141C91.6181 48.6402 85.9287 49.2332 80.9831 50.2382C80.5865 50.3186 80.1893 50.3952 79.7919 50.4717C69.6647 52.4845 59.8396 57.1146 51.027 62.3818C50.7428 62.5516 50.4583 62.7207 50.1732 62.8891C46.8745 64.8382 43.6744 66.9681 40.6484 69.3203C40.4221 69.4947 40.1958 69.669 39.9695 69.8433C37.5264 71.7293 35.1486 73.6833 32.8845 75.7814C32.534 76.1029 32.178 76.4148 31.8164 76.7237C31.3899 77.093 31.0463 77.48 30.7031 77.9297C30.3119 78.3285 29.9129 78.7188 29.5133 79.1091C28.6264 79.9783 27.7876 80.8563 27.0154 81.8314C26.6859 82.2463 26.3437 82.648 25.9995 83.0508C22.0129 87.8459 17.0933 94.7839 17.6406 101.383C17.8226 102.695 18.1151 103.904 18.9766 104.945C19.0745 104.945 19.1725 104.945 19.2734 104.945C19.3083 105.033 19.3431 105.12 19.379 105.21C20.0712 106.4 21.7675 106.819 23.0145 107.18C24.2761 107.494 25.523 107.511 26.8159 107.515C26.9204 107.516 27.0249 107.516 27.1325 107.516C30.0704 107.518 32.9124 107.024 35.75 106.281C35.8922 106.027 35.8922 106.027 35.8984 105.688C35.659 105.396 35.433 105.16 35.1562 104.908C35.0031 104.762 34.8502 104.616 34.6976 104.469C34.6228 104.398 34.548 104.327 34.471 104.254C34.0236 103.82 33.6274 103.343 33.2266 102.867C33.1192 102.743 33.0119 102.62 32.9013 102.492C31.1797 100.478 29.6955 98.3111 28.3509 96.0301C28.2057 95.7859 28.0558 95.5446 27.9048 95.3039C27.2732 94.2801 26.7615 93.2025 26.25 92.1148C26.1749 91.958 26.0998 91.8013 26.0224 91.6398C25.9536 91.4906 25.8848 91.3414 25.814 91.1876C25.7201 90.9866 25.7201 90.9866 25.6244 90.7815C25.4873 90.3311 25.5108 90.101 25.6562 89.6563C25.8196 89.3757 25.8196 89.3757 26.025 89.1101C26.1017 89.01 26.1783 88.91 26.2573 88.807C26.3406 88.7015 26.4239 88.596 26.5098 88.4873C26.5961 88.3765 26.6823 88.2657 26.7712 88.1515C27.6477 87.0358 28.5694 85.963 29.5156 84.9063C29.5825 84.8308 29.6494 84.7553 29.7183 84.6775C30.7818 83.4805 31.9109 82.3474 33.041 81.2139C33.1146 81.1399 33.1882 81.0659 33.2641 80.9896C34.1153 80.1349 34.978 79.3039 35.8984 78.5235C36.0609 78.3825 36.2233 78.2414 36.3855 78.1002C38.1128 76.6088 39.8778 75.1639 41.6875 73.7735C41.9257 73.588 42.1638 73.4025 42.4019 73.2168C43.1463 72.6364 43.9045 72.0882 44.6841 71.5562C45.5494 70.9639 46.4083 70.3635 47.2632 69.7564C50.1925 67.684 53.2333 65.8443 56.3828 64.125C55.7054 64.9246 54.9952 65.6739 54.239 66.3987C54.0576 66.5756 53.8836 66.7599 53.7109 66.9453C53.7109 67.0433 53.7109 67.1413 53.7109 67.2422C53.613 67.2422 53.515 67.2422 53.4141 67.2422C51.8203 68.8967 50.4323 70.9851 49.4062 73.0313C49.2788 73.2626 49.2788 73.2626 49.1488 73.4986C47.4649 76.6433 46.8585 80.4895 47.8842 83.9455C48.9209 86.8166 50.9166 88.9108 53.635 90.2483C54.6633 90.7247 55.7264 91.0338 56.8281 91.2891C57.0543 91.3436 57.0543 91.3436 57.285 91.3993C60.7735 92.0802 64.433 91.4767 67.8125 90.5469C67.8125 90.4489 67.8125 90.351 67.8125 90.25C67.8972 90.2784 67.9818 90.3067 68.0691 90.3359C68.4701 90.4103 68.6696 90.3491 69.051 90.2118C69.2353 90.1465 69.2353 90.1465 69.4233 90.0799C69.553 90.032 69.6828 89.984 69.8164 89.9346C69.9506 89.8861 70.0848 89.8375 70.2231 89.7875C71.7302 89.238 73.1881 88.6102 74.6406 87.9307C74.7633 87.8736 74.886 87.8165 75.0123 87.7577C75.1285 87.7026 75.2446 87.6476 75.3643 87.5909C75.5198 87.5175 75.5198 87.5175 75.6785 87.4427C76.0018 87.2676 76.2775 87.0575 76.5703 86.836C76.9182 86.661 77.2668 86.4921 77.6187 86.3257C79.0719 85.6174 80.4179 84.7567 81.7656 83.8672C81.8713 83.7977 81.9771 83.7282 82.086 83.6565C83.4135 82.7783 84.6734 81.8362 85.9056 80.8289C86.0269 80.731 86.0269 80.731 86.1506 80.6312C86.3314 80.4825 86.5066 80.3271 86.6803 80.1702C86.9609 80.0078 86.9609 80.0078 87.3135 80.0391C87.4421 80.0778 87.5706 80.1165 87.7031 80.1563C89.5578 80.6653 91.1346 80.7805 92.9199 79.9528C94.3199 79.1541 95.1508 78.0942 95.7188 76.5938C95.8675 76.0259 95.8871 75.4913 95.8857 74.9053C95.8856 74.7358 95.8854 74.5662 95.8852 74.3916C95.8707 74.014 95.831 73.6933 95.7466 73.3281C95.7328 73.1077 95.7328 73.1077 95.7188 72.8828C96.3053 72.2296 96.9872 71.659 97.6452 71.0781C97.8497 70.8939 98.0467 70.7015 98.2422 70.5078C98.2422 70.4099 98.2422 70.3119 98.2422 70.211C98.3263 70.1751 98.4105 70.1393 98.4971 70.1023C98.9032 69.8767 99.1791 69.6068 99.5068 69.2774C99.6341 69.1498 99.7615 69.0222 99.8927 68.8907C100.091 68.6901 100.091 68.6901 100.292 68.4854C100.423 68.3551 100.553 68.2248 100.687 68.0905C101.358 67.4153 102.009 66.7316 102.626 66.0069C102.844 65.7578 102.844 65.7578 103.095 65.5209C103.323 65.3238 103.323 65.3238 103.289 65.0156C103.387 65.0156 103.485 65.0156 103.586 65.0156C103.796 64.7822 103.995 64.539 104.189 64.292C104.635 63.7341 105.087 63.193 105.571 62.6685C106.397 61.7598 107.143 60.7931 107.891 59.8203C107.973 59.7138 108.055 59.6073 108.14 59.4975C108.397 59.1632 108.654 58.8285 108.911 58.4937C108.991 58.3901 109.07 58.2866 109.152 58.1799C109.376 57.8866 109.598 57.592 109.82 57.2969C109.893 57.2012 109.967 57.1055 110.042 57.0069C110.461 56.4693 110.461 56.4693 110.562 55.8125C110.709 55.7635 110.856 55.7146 111.008 55.6641C111.221 55.4149 111.221 55.4149 111.416 55.0993C111.493 54.9803 111.571 54.8614 111.65 54.7388C111.773 54.5447 111.773 54.5447 111.898 54.3467C111.984 54.2136 112.069 54.0805 112.157 53.9433C113.004 52.611 113.799 51.2519 114.57 49.875C114.626 49.7773 114.682 49.6797 114.739 49.579C116.553 46.3893 118.156 42.444 117.242 38.7422C117.095 38.7422 116.948 38.7422 116.797 38.7422C116.797 38.6442 116.797 38.5463 116.797 38.4453C116.895 38.4453 116.993 38.4453 117.094 38.4453C116.777 37.3121 116.063 36.4647 115.079 35.8204C111.167 33.8045 106.128 35.3023 102.129 36.3115Z" fill="black"/>
<path d="M22.0938 82.3828C22.1917 82.3828 22.2897 82.3828 22.3906 82.3828C22.3416 82.6277 22.2927 82.8727 22.2422 83.125C22.1442 83.076 22.0463 83.027 21.9453 82.9766C21.9943 82.7806 22.0433 82.5847 22.0938 82.3828Z" fill="black"/>
<path d="M110.117 55.9609C110.166 56.1079 110.215 56.2548 110.266 56.4062C110.217 56.5042 110.168 56.6022 110.117 56.7031C110.019 56.6541 109.921 56.6052 109.82 56.5547C109.918 56.3587 110.016 56.1628 110.117 55.9609Z" fill="black"/>
<path d="M20.9062 73.9219C20.9552 73.9219 21.0042 73.9219 21.0547 73.9219C21.0547 74.1668 21.0547 74.4117 21.0547 74.6641C20.9567 74.5171 20.8588 74.3702 20.7578 74.2188C20.8068 74.1208 20.8558 74.0228 20.9062 73.9219Z" fill="black"/>
<path d="M116.945 42.75C116.994 42.9459 117.043 43.1419 117.094 43.3438C116.947 43.4172 116.947 43.4172 116.797 43.4922C116.846 43.2473 116.895 43.0023 116.945 42.75Z" fill="black"/>
<path d="M81.3203 50.3203C81.5652 50.3203 81.8102 50.3203 82.0625 50.3203C82.0625 50.3693 82.0625 50.4183 82.0625 50.4688C81.8176 50.4688 81.5727 50.4688 81.3203 50.4688C81.3203 50.4198 81.3203 50.3708 81.3203 50.3203Z" fill="black"/>
<path d="M89.1875 49.5781C89.4324 49.5781 89.6773 49.5781 89.9297 49.5781C89.9297 49.6271 89.9297 49.6761 89.9297 49.7266C89.6848 49.7266 89.4398 49.7266 89.1875 49.7266C89.1875 49.6776 89.1875 49.6286 89.1875 49.5781Z" fill="black"/>
<path d="M117.094 39.3359C117.143 39.3359 117.192 39.3359 117.242 39.3359C117.242 39.5809 117.242 39.8258 117.242 40.0781C117.193 40.0781 117.144 40.0781 117.094 40.0781C117.094 39.8332 117.094 39.5883 117.094 39.3359Z" fill="black"/>
<path d="M62.0234 119.641C62.6172 119.789 62.6172 119.789 62.6172 119.789L62.0234 119.641Z" fill="black"/>
<path d="M31 106.875C31.5938 107.023 31.5938 107.023 31.5938 107.023L31 106.875Z" fill="#000001"/>
<path d="M52.5234 82.9766C52.6704 83.197 52.6704 83.197 52.8203 83.4219C52.7223 83.4219 52.6244 83.4219 52.5234 83.4219C52.5234 83.2749 52.5234 83.128 52.5234 82.9766Z" fill="black"/>
<path d="M25.9531 83.2734C26.0511 83.2734 26.1491 83.2734 26.25 83.2734C26.25 83.3714 26.25 83.4694 26.25 83.5703C26.152 83.5703 26.0541 83.5703 25.9531 83.5703C25.9531 83.4723 25.9531 83.3744 25.9531 83.2734Z" fill="black"/>
<path d="M21.5 79.2656C21.6484 79.8594 21.6484 79.8594 21.6484 79.8594L21.5 79.2656Z" fill="black"/>
<path d="M93.0469 51.5078C93.6406 51.6562 93.6406 51.6562 93.6406 51.6562L93.0469 51.5078Z" fill="black"/>
<path d="M60.6875 24.9375C61.2812 25.0859 61.2812 25.0859 61.2812 25.0859L60.6875 24.9375Z" fill="black"/>
<path d="M28.3281 107.172C28.7734 107.32 28.7734 107.32 28.7734 107.32L28.3281 107.172Z" fill="black"/>
<path d="M31.1484 82.3828C31.2954 82.4563 31.2954 82.4563 31.4453 82.5312C31.2984 82.6047 31.2984 82.6047 31.1484 82.6797C31.1484 82.5817 31.1484 82.4838 31.1484 82.3828Z" fill="black"/>
<path d="M22.0938 61.4531C22.1427 61.5511 22.1917 61.6491 22.2422 61.75C22.1442 61.701 22.0463 61.652 21.9453 61.6016C21.9943 61.5526 22.0433 61.5036 22.0938 61.4531Z" fill="black"/>
<path d="M72.4141 57.1484C72.463 57.2464 72.512 57.3444 72.5625 57.4453C72.4645 57.3963 72.3666 57.3473 72.2656 57.2969C72.3146 57.2479 72.3636 57.1989 72.4141 57.1484Z" fill="black"/>
<path d="M109.969 51.9531C110.116 52.0266 110.116 52.0266 110.266 52.1016C110.119 52.175 110.119 52.175 109.969 52.25C109.969 52.152 109.969 52.0541 109.969 51.9531Z" fill="black"/>
<path d="M88.4453 49.5781C88.8906 49.7266 88.8906 49.7266 88.8906 49.7266L88.4453 49.5781Z" fill="black"/>
<path d="M109.523 35.1797C109.969 35.3281 109.969 35.3281 109.969 35.3281L109.523 35.1797Z" fill="black"/>
<path d="M108.781 30.875C109.227 31.0234 109.227 31.0234 109.227 31.0234L108.781 30.875Z" fill="black"/>
<path d="M80.5781 26.125C81.0234 26.2734 81.0234 26.2734 81.0234 26.2734L80.5781 26.125Z" fill="black"/>
<path d="M116.797 141.758C117.094 141.906 117.094 141.906 117.094 141.906L116.797 141.758Z" fill="#686869"/>
<path d="M116.797 138.195C117.094 138.344 117.094 138.344 117.094 138.344L116.797 138.195Z" fill="#5B5A5B"/>
<path d="M55.6406 118.156C55.9375 118.305 55.9375 118.305 55.9375 118.305L55.6406 118.156Z" fill="black"/>
<path d="M87.4062 116.078C87.7031 116.227 87.7031 116.227 87.7031 116.227L87.4062 116.078Z" fill="black"/>
<path d="M93.3438 112.961C93.6406 113.109 93.6406 113.109 93.6406 113.109L93.3438 112.961Z" fill="black"/>
<path d="M32.9297 111.477C33.2266 111.625 33.2266 111.625 33.2266 111.625L32.9297 111.477Z" fill="black"/>
<path d="M30.4062 107.023C30.7031 107.172 30.7031 107.172 30.7031 107.172L30.4062 107.023Z" fill="black"/>
<path d="M116.797 103.758C117.094 103.906 117.094 103.906 117.094 103.906L116.797 103.758Z" fill="#0B0B0C"/>
<path d="M105.516 102.273C105.812 102.422 105.812 102.422 105.812 102.422L105.516 102.273Z" fill="black"/>
<path d="M73.75 87.875C74.0469 88.0234 74.0469 88.0234 74.0469 88.0234L73.75 87.875Z" fill="black"/>
<path d="M116.797 83.5703C117.094 83.7188 117.094 83.7188 117.094 83.7188L116.797 83.5703Z" fill="#000100"/>
<path d="M81.6172 83.4219C81.9141 83.5703 81.9141 83.5703 81.9141 83.5703L81.6172 83.4219Z" fill="black"/>
<path d="M116.797 82.3828C117.094 82.5312 117.094 82.5312 117.094 82.5312L116.797 82.3828Z" fill="black"/>
<path d="M21.9453 81.7891C22.2422 81.9375 22.2422 81.9375 22.2422 81.9375L21.9453 81.7891Z" fill="black"/>
<path d="M92.0078 79.8594C92.3047 80.0078 92.3047 80.0078 92.3047 80.0078L92.0078 79.8594Z" fill="black"/>
<path d="M116.797 78.8203C117.094 78.9688 117.094 78.9688 117.094 78.9688L116.797 78.8203Z" fill="black"/>
<path d="M116.797 74.0703C117.094 74.2188 117.094 74.2188 117.094 74.2188L116.797 74.0703Z" fill="black"/>
<path d="M20.6094 71.8438C20.9062 71.9922 20.9062 71.9922 20.9062 71.9922L20.6094 71.8438Z" fill="black"/>
<path d="M92.3047 69.4688C92.6016 69.6172 92.6016 69.6172 92.6016 69.6172L92.3047 69.4688Z" fill="black"/>
<path d="M91.7109 69.3203C92.0078 69.4688 92.0078 69.4688 92.0078 69.4688L91.7109 69.3203Z" fill="#000100"/>
<path d="M87.7031 69.3203C88 69.4688 88 69.4688 88 69.4688L87.7031 69.3203Z" fill="black"/>
<path d="M49.1094 67.6875C49.4062 67.8359 49.4062 67.8359 49.4062 67.8359L49.1094 67.6875Z" fill="black"/>
<path d="M95.125 50.7656C95.4219 50.9141 95.4219 50.9141 95.4219 50.9141L95.125 50.7656Z" fill="#000100"/>
<path d="M86.2188 49.7266C86.5156 49.875 86.5156 49.875 86.5156 49.875L86.2188 49.7266Z" fill="black"/>
<path d="M116.797 40.8203C117.094 40.9688 117.094 40.9688 117.094 40.9688L116.797 40.8203Z" fill="black"/>
<path d="M117.094 40.5234C117.391 40.6719 117.391 40.6719 117.391 40.6719L117.094 40.5234Z" fill="black"/>
<path d="M105.07 31.6172C105.367 31.7656 105.367 31.7656 105.367 31.7656L105.07 31.6172Z" fill="black"/>
<path d="M46.7344 29.6875C47.0312 29.8359 47.0312 29.8359 47.0312 29.8359L46.7344 29.6875Z" fill="black"/>
<path d="M87.7031 28.6484C88 28.7969 88 28.7969 88 28.7969L87.7031 28.6484Z" fill="black"/>
<path d="M81.7656 26.4219C82.0625 26.5703 82.0625 26.5703 82.0625 26.5703L81.7656 26.4219Z" fill="black"/>
<path d="M75.3828 24.9375C75.6797 25.0859 75.6797 25.0859 75.6797 25.0859L75.3828 24.9375Z" fill="black"/>
<path d="M116.797 8.75781C117.094 8.90625 117.094 8.90625 117.094 8.90625L116.797 8.75781Z" fill="#555554"/>
<path d="M116.797 5.19531C117.094 5.34375 117.094 5.34375 117.094 5.34375L116.797 5.19531Z" fill="#646364"/>
</svg>
