<svg width="136" height="136" viewBox="0 0 136 136" fill="none" xmlns="http://www.w3.org/2000/svg">
<path d="M69.2801 12.5485C69.9946 12.6114 70.7083 12.6663 71.4243 12.7096C71.6069 12.7212 71.7896 12.7328 71.9777 12.7447C72.3519 12.7683 72.7261 12.7911 73.1003 12.8131C74.0514 12.8748 74.9121 12.976 75.8281 13.2344C76.0879 13.2898 76.3481 13.3429 76.6086 13.3944C83.5032 14.7668 90.3378 17.1908 95.935 21.5562C96.0596 21.6511 96.1842 21.746 96.3125 21.8438C96.4353 21.9678 96.5582 22.0918 96.6848 22.2195C97.4366 22.5357 97.8735 22.2799 98.6118 21.9911C98.7868 21.918 98.9618 21.8449 99.1421 21.7696C99.4869 21.6314 99.8319 21.4938 100.177 21.3567C100.347 21.2884 100.516 21.2201 100.691 21.1497C101.376 20.8908 102.072 20.6863 102.777 20.4896C103.164 20.3984 103.164 20.3984 103.289 20.0625C103.428 20.07 103.567 20.0774 103.709 20.0851C104.47 20.0849 105.181 19.8831 105.915 19.7007C107.073 19.4236 108.18 19.1996 109.375 19.1719C109.375 19.0739 109.375 18.976 109.375 18.875C114.33 18.6649 114.33 18.6649 116.602 18.7822C116.754 18.7891 116.754 18.7891 116.91 18.7961C117.438 18.8282 117.681 18.8709 118.133 19.1719C118.382 19.2594 118.633 19.3424 118.884 19.4224C120.417 19.9743 121.569 20.9071 122.438 22.2891C123.85 25.3384 123.198 28.695 122.104 31.7334C121.651 32.9382 121.108 34.0862 120.506 35.2226C120.367 35.4859 120.233 35.7515 120.098 36.0172C118.881 38.3886 117.412 40.6324 115.906 42.8291C115.827 42.9448 115.748 43.0605 115.666 43.1797C115.34 43.6525 115.01 44.1164 114.66 44.5715C114.563 44.6976 114.466 44.8237 114.366 44.9536C114.285 45.0522 114.205 45.1507 114.122 45.2523C113.697 46.2533 114.355 47.7171 114.617 48.711C117.354 59.4397 116.226 70.9291 111.453 80.9219C111.381 81.0758 111.381 81.0758 111.307 81.2328C109.389 85.308 106.775 89.0331 103.72 92.3348C103.413 92.6758 103.13 93.0318 102.844 93.3906C102.175 94.1084 102.175 94.1084 101.656 94.2813C101.656 94.3792 101.656 94.4772 101.656 94.5781C101.47 94.7718 101.47 94.7718 101.192 95.0049C101.084 95.0971 100.975 95.1894 100.862 95.2844C100.733 95.3942 100.603 95.5041 100.469 95.6172C100.314 95.7526 100.16 95.8883 100.005 96.0243C98.9992 96.9063 97.9715 97.732 96.8764 98.502C96.4494 98.8052 96.1611 99.0357 95.8672 99.4766C95.7692 99.4766 95.6713 99.4766 95.5703 99.4766C95.1971 99.7088 94.8316 99.9468 94.4663 100.191C91.0671 102.413 87.4214 104.304 83.5469 105.563C83.4067 105.608 83.2666 105.654 83.1221 105.701C74.7638 108.381 66.2466 108.571 57.7188 106.602C57.6069 106.577 57.4951 106.552 57.3798 106.527C51.9809 105.337 46.8676 102.59 42.3961 99.4145C42.2822 99.3343 42.1684 99.2541 42.0511 99.1714C41.6875 98.8828 41.6875 98.8828 41.2865 98.4685C40.8503 98.024 40.4618 97.6908 39.9062 97.3985C39.0624 97.4082 38.3516 97.6898 37.5776 97.9922C37.3629 98.0682 37.1477 98.143 36.9321 98.2168C36.6056 98.3287 36.2793 98.441 35.9541 98.5568C34.948 98.9141 33.9332 99.1802 32.8926 99.4209C32.6651 99.4757 32.6651 99.4757 32.433 99.5317C31.7896 99.6821 31.2182 99.7916 30.5547 99.7735C30.5057 99.8714 30.4567 99.9694 30.4062 100.07C30.1231 100.124 30.1231 100.124 29.7545 100.149C29.2167 100.192 28.6874 100.249 28.1542 100.331C23.6046 101.004 18.0859 101.301 14.1634 98.4433C14.0373 98.3434 13.9112 98.2436 13.7812 98.1406C13.672 98.0561 13.5627 97.9715 13.4502 97.8844C12.4698 97.0234 11.6161 95.5378 11.3361 94.2571C11.3102 94.1671 11.2844 94.0771 11.2578 93.9844C11.1598 93.9354 11.0619 93.8864 10.9609 93.836C10.986 93.7368 11.0111 93.6377 11.0369 93.5356C11.1074 93.1058 11.1083 92.709 11.092 92.2748C10.976 88.8102 12.3138 85.5566 13.9297 82.5547C14.0158 82.3915 14.1019 82.2283 14.1906 82.0601C16.2536 78.2959 19.0044 74.8877 21.8123 71.6584C22.2184 71.1989 22.2184 71.1989 22.5391 70.6797C22.437 70.2577 22.3251 69.8442 22.2051 69.4273C20.0593 61.5653 20.9924 52.9151 23.5508 45.2692C23.5931 45.1425 23.6354 45.0158 23.679 44.8852C23.7169 44.7744 23.7547 44.6635 23.7938 44.5493C23.8949 44.2368 23.8949 44.2368 23.875 43.8125C23.973 43.8125 24.0709 43.8125 24.1719 43.8125C24.1979 43.7314 24.2239 43.6502 24.2507 43.5666C26.0727 37.9796 29.4005 33.1101 33.1488 28.6468C33.2979 28.4676 33.4451 28.2868 33.5902 28.1044C33.7597 27.8926 33.9376 27.6877 34.1172 27.4844C34.2152 27.4844 34.3131 27.4844 34.4141 27.4844C34.4141 27.3864 34.4141 27.2885 34.4141 27.1875C34.512 27.1875 34.61 27.1875 34.7109 27.1875C34.7473 27.1028 34.7836 27.018 34.8211 26.9307C35.4189 25.852 36.5977 25.0093 37.5312 24.2188C37.6554 24.111 37.7796 24.0033 37.9076 23.8923C41.2362 21.049 47.8232 15.6094 52.375 15.6094C52.424 15.5114 52.473 15.4135 52.5234 15.3125C52.8116 15.2122 52.8116 15.2122 53.2007 15.1177C53.874 14.9464 54.5274 14.7449 55.186 14.5239C59.11 13.2651 63.2335 12.762 67.3389 12.6641C67.6719 12.6481 67.6719 12.6481 68.0216 12.561C68.4628 12.4821 68.834 12.5063 69.2801 12.5485ZM102.129 24.3115C102.012 24.3403 101.895 24.3691 101.775 24.3987C101.21 24.5473 100.858 24.6749 100.469 25.1094C100.606 25.2238 100.744 25.3382 100.886 25.4561C101.065 25.6065 101.245 25.7569 101.424 25.9072C101.515 25.9826 101.606 26.058 101.699 26.1357C102.382 26.7086 102.382 26.7086 102.547 27.0391C102.645 27.0391 102.743 27.0391 102.844 27.0391C102.882 27.1267 102.921 27.2144 102.96 27.3046C103.154 27.6576 103.355 27.8621 103.651 28.1338C106.042 30.4861 107.87 33.5356 109.505 36.437C109.595 36.5864 109.685 36.7358 109.778 36.8898C110.338 37.9252 110.338 37.9252 110.138 38.6097C109.912 39.0373 109.663 39.4168 109.375 39.8047C109.312 39.8964 109.248 39.988 109.183 40.0825C109.02 40.3115 108.845 40.5315 108.67 40.751C108.541 40.9141 108.412 41.0772 108.283 41.2404C108.218 41.3218 108.153 41.4032 108.086 41.4871C107.829 41.8129 107.577 42.1432 107.325 42.4737C105.649 44.6728 103.865 46.7874 101.965 48.7962C101.63 49.1406 101.63 49.1406 101.508 49.6016C101.41 49.6016 101.312 49.6016 101.211 49.6016C101.002 49.8071 101.002 49.8071 100.782 50.0846C100.112 50.8728 99.3838 51.5996 98.6512 52.3292C98.4158 52.5637 98.1812 52.7991 97.9468 53.0345C97.7969 53.1842 97.647 53.3339 97.4971 53.4836C97.3622 53.6183 97.2274 53.753 97.0884 53.8917C96.7578 54.2031 96.7578 54.2031 96.4609 54.3516C96.4609 54.4496 96.4609 54.5475 96.4609 54.6485C96.3739 54.6877 96.2868 54.7269 96.1971 54.7673C95.855 54.9519 95.618 55.1502 95.3378 55.4185C95.2413 55.5099 95.1447 55.6014 95.0453 55.6956C94.9461 55.7909 94.8468 55.8862 94.7446 55.9844C94.5468 56.1733 94.3487 56.362 94.1503 56.5503C94.0195 56.6757 94.0195 56.6757 93.8861 56.8037C93.6406 57.0235 93.6406 57.0235 93.1953 57.3203C92.6897 57.2881 92.2466 57.1982 91.7602 57.0565C90.0526 56.567 88.4113 56.6516 86.8125 57.4688C85.4093 58.3424 84.4427 59.5828 83.9922 61.1797C83.8762 61.7529 83.8399 62.1904 83.918 62.7719C84.1072 64.2477 84.1072 64.2477 83.6374 64.8648C83.0464 65.4306 82.3679 65.8696 81.6758 66.3015C81.3396 66.5114 81.0119 66.73 80.6848 66.9537C78.5743 68.3817 76.3209 69.582 74.0298 70.6922C73.7632 70.8217 73.4977 70.9536 73.2322 71.0856C68.0923 73.5784 61.9492 75.6194 56.2651 73.9737C54.7449 73.4434 53.5676 72.3939 52.8203 70.9766C51.7722 68.7489 51.9183 66.6002 52.7217 64.3172C54.3135 60.0324 57.7352 56.0064 61.2812 53.1641C61.4922 52.9942 61.4922 52.9942 61.7074 52.8208C65.5898 49.7201 69.7168 46.9938 74.2035 44.842C74.4999 44.6994 74.795 44.5541 75.09 44.4086C77.4764 43.2441 79.9651 42.3717 82.48 41.5303C82.5761 41.4981 82.6723 41.4658 82.7713 41.4326C83.7651 41.1004 84.752 40.7818 85.7734 40.5469C85.8709 40.5221 85.9684 40.4974 86.0689 40.4718C87.8009 40.0458 89.5875 39.8836 91.3615 39.7523C91.5715 39.7363 91.5715 39.7363 91.7857 39.7201C91.911 39.7112 92.0362 39.7024 92.1653 39.6933C92.4536 39.686 92.4536 39.686 92.6016 39.5078C92.6016 39.6058 92.6016 39.7038 92.6016 39.8047C92.7225 39.8259 92.7225 39.8259 92.8458 39.8474C94.9676 40.2257 96.7847 40.6539 98.5449 41.964C98.8264 42.1856 98.8264 42.1856 99.1328 42.3281C98.6778 40.6636 97.7848 39.7922 96.3125 38.9141C91.6181 36.6402 85.9287 37.2332 80.9831 38.2382C80.5865 38.3186 80.1893 38.3952 79.7919 38.4717C69.6647 40.4845 59.8396 45.1146 51.027 50.3818C50.7428 50.5516 50.4583 50.7207 50.1732 50.8891C46.8745 52.8382 43.6744 54.9681 40.6484 57.3203C40.4221 57.4947 40.1958 57.669 39.9695 57.8433C37.5264 59.7293 35.1486 61.6833 32.8845 63.7814C32.534 64.1029 32.178 64.4148 31.8164 64.7237C31.3899 65.093 31.0463 65.48 30.7031 65.9297C30.3119 66.3285 29.9129 66.7188 29.5133 67.1091C28.6264 67.9783 27.7876 68.8563 27.0154 69.8314C26.6859 70.2463 26.3437 70.648 25.9995 71.0508C22.0129 75.8459 17.0933 82.7839 17.6406 89.3828C17.8226 90.6953 18.1151 91.904 18.9766 92.9453C19.0745 92.9453 19.1725 92.9453 19.2734 92.9453C19.3083 93.0328 19.3431 93.1202 19.379 93.2103C20.0712 94.3996 21.7675 94.819 23.0145 95.18C24.2761 95.4941 25.523 95.5106 26.8159 95.5152C26.9204 95.5155 27.0249 95.5159 27.1325 95.5163C30.0704 95.5175 32.9124 95.0243 35.75 94.2813C35.8922 94.027 35.8922 94.027 35.8984 93.6875C35.659 93.3955 35.433 93.16 35.1562 92.9082C35.0031 92.7622 34.8502 92.6159 34.6976 92.4693C34.6228 92.3982 34.548 92.3271 34.471 92.2538C34.0236 91.82 33.6274 91.3434 33.2266 90.8672C33.1192 90.7434 33.0119 90.6196 32.9013 90.4921C31.1797 88.4776 29.6955 86.3111 28.3509 84.0301C28.2057 83.7859 28.0558 83.5446 27.9048 83.3039C27.2732 82.2801 26.7615 81.2025 26.25 80.1148C26.1749 79.958 26.0998 79.8013 26.0224 79.6398C25.9536 79.4906 25.8848 79.3414 25.814 79.1876C25.7201 78.9866 25.7201 78.9866 25.6244 78.7815C25.4873 78.3311 25.5108 78.101 25.6562 77.6563C25.8196 77.3757 25.8196 77.3757 26.025 77.1101C26.1017 77.01 26.1783 76.91 26.2573 76.807C26.3406 76.7015 26.4239 76.596 26.5098 76.4873C26.5961 76.3765 26.6823 76.2657 26.7712 76.1515C27.6477 75.0358 28.5694 73.963 29.5156 72.9063C29.5825 72.8308 29.6494 72.7553 29.7183 72.6775C30.7818 71.4805 31.9109 70.3474 33.041 69.2139C33.1146 69.1399 33.1882 69.0659 33.2641 68.9896C34.1153 68.1349 34.978 67.3039 35.8984 66.5235C36.0609 66.3825 36.2233 66.2414 36.3855 66.1002C38.1128 64.6088 39.8778 63.1639 41.6875 61.7735C41.9257 61.588 42.1638 61.4025 42.4019 61.2168C43.1463 60.6364 43.9045 60.0882 44.6841 59.5562C45.5494 58.9639 46.4083 58.3635 47.2632 57.7564C50.1925 55.684 53.2333 53.8443 56.3828 52.125C55.7054 52.9246 54.9952 53.6739 54.239 54.3987C54.0576 54.5756 53.8836 54.7599 53.7109 54.9453C53.7109 55.0433 53.7109 55.1413 53.7109 55.2422C53.613 55.2422 53.515 55.2422 53.4141 55.2422C51.8203 56.8967 50.4323 58.9851 49.4062 61.0313C49.2788 61.2626 49.2788 61.2626 49.1488 61.4986C47.4649 64.6433 46.8585 68.4895 47.8842 71.9455C48.9209 74.8166 50.9166 76.9108 53.635 78.2483C54.6633 78.7247 55.7264 79.0338 56.8281 79.2891C57.0543 79.3436 57.0543 79.3436 57.285 79.3993C60.7735 80.0802 64.433 79.4767 67.8125 78.5469C67.8125 78.4489 67.8125 78.351 67.8125 78.25C67.8972 78.2784 67.9818 78.3067 68.0691 78.3359C68.4701 78.4103 68.6696 78.3491 69.051 78.2118C69.2353 78.1465 69.2353 78.1465 69.4233 78.0799C69.553 78.032 69.6828 77.984 69.8164 77.9346C69.9506 77.8861 70.0848 77.8375 70.2231 77.7875C71.7302 77.238 73.1881 76.6102 74.6406 75.9307C74.7633 75.8736 74.886 75.8165 75.0123 75.7577C75.1285 75.7026 75.2446 75.6476 75.3643 75.5909C75.5198 75.5175 75.5198 75.5175 75.6785 75.4427C76.0018 75.2676 76.2775 75.0575 76.5703 74.836C76.9182 74.661 77.2668 74.4921 77.6187 74.3257C79.0719 73.6174 80.4179 72.7567 81.7656 71.8672C81.8713 71.7977 81.9771 71.7282 82.086 71.6565C83.4135 70.7783 84.6734 69.8362 85.9056 68.8289C86.0269 68.731 86.0269 68.731 86.1506 68.6312C86.3314 68.4825 86.5066 68.3271 86.6803 68.1702C86.9609 68.0078 86.9609 68.0078 87.3135 68.0391C87.4421 68.0778 87.5706 68.1165 87.7031 68.1563C89.5578 68.6653 91.1346 68.7805 92.9199 67.9528C94.3199 67.1541 95.1508 66.0942 95.7188 64.5938C95.8675 64.0259 95.8871 63.4913 95.8857 62.9053C95.8856 62.7358 95.8854 62.5662 95.8852 62.3916C95.8707 62.014 95.831 61.6933 95.7466 61.3281C95.7328 61.1077 95.7328 61.1077 95.7188 60.8828C96.3053 60.2296 96.9872 59.659 97.6452 59.0781C97.8497 58.8939 98.0467 58.7015 98.2422 58.5078C98.2422 58.4099 98.2422 58.3119 98.2422 58.211C98.3263 58.1751 98.4105 58.1393 98.4971 58.1023C98.9032 57.8767 99.1791 57.6068 99.5068 57.2774C99.6341 57.1498 99.7615 57.0222 99.8927 56.8907C100.091 56.6901 100.091 56.6901 100.292 56.4854C100.423 56.3551 100.553 56.2248 100.687 56.0905C101.358 55.4153 102.009 54.7316 102.626 54.0069C102.844 53.7578 102.844 53.7578 103.095 53.5209C103.323 53.3238 103.323 53.3238 103.289 53.0156C103.387 53.0156 103.485 53.0156 103.586 53.0156C103.796 52.7822 103.995 52.539 104.189 52.292C104.635 51.7341 105.087 51.193 105.571 50.6685C106.397 49.7598 107.143 48.7931 107.891 47.8203C107.973 47.7138 108.055 47.6073 108.14 47.4975C108.397 47.1632 108.654 46.8285 108.911 46.4937C108.991 46.3901 109.07 46.2866 109.152 46.1799C109.376 45.8866 109.598 45.592 109.82 45.2969C109.893 45.2012 109.967 45.1055 110.042 45.0069C110.461 44.4693 110.461 44.4693 110.562 43.8125C110.709 43.7635 110.856 43.7146 111.008 43.6641C111.221 43.4149 111.221 43.4149 111.416 43.0993C111.493 42.9803 111.571 42.8614 111.65 42.7388C111.773 42.5447 111.773 42.5447 111.898 42.3467C111.984 42.2136 112.069 42.0805 112.157 41.9433C113.004 40.611 113.799 39.2519 114.57 37.875C114.626 37.7773 114.682 37.6797 114.739 37.579C116.553 34.3893 118.156 30.444 117.242 26.7422C117.095 26.7422 116.948 26.7422 116.797 26.7422C116.797 26.6442 116.797 26.5463 116.797 26.4453C116.895 26.4453 116.993 26.4453 117.094 26.4453C116.777 25.3121 116.063 24.4647 115.079 23.8204C111.167 21.8045 106.128 23.3023 102.129 24.3115Z" fill="#5A4FCF"/>
<path d="M22.0938 70.3828C22.1917 70.3828 22.2897 70.3828 22.3906 70.3828C22.3416 70.6277 22.2927 70.8727 22.2422 71.125C22.1442 71.076 22.0463 71.027 21.9453 70.9766C21.9943 70.7806 22.0433 70.5847 22.0938 70.3828Z" fill="#5A4FCF"/>
<path d="M110.117 43.9609C110.166 44.1079 110.215 44.2548 110.266 44.4062C110.217 44.5042 110.168 44.6022 110.117 44.7031C110.019 44.6541 109.921 44.6052 109.82 44.5547C109.918 44.3587 110.016 44.1628 110.117 43.9609Z" fill="#5A4FCF"/>
<path d="M20.9062 61.9219C20.9552 61.9219 21.0042 61.9219 21.0547 61.9219C21.0547 62.1668 21.0547 62.4117 21.0547 62.6641C20.9567 62.5171 20.8588 62.3702 20.7578 62.2188C20.8068 62.1208 20.8558 62.0228 20.9062 61.9219Z" fill="#5A4FCF"/>
<path d="M116.945 30.75C116.994 30.9459 117.043 31.1419 117.094 31.3438C116.947 31.4172 116.947 31.4172 116.797 31.4922C116.846 31.2473 116.895 31.0023 116.945 30.75Z" fill="#5A4FCF"/>
<path d="M81.3203 38.3203C81.5652 38.3203 81.8102 38.3203 82.0625 38.3203C82.0625 38.3693 82.0625 38.4183 82.0625 38.4688C81.8176 38.4688 81.5727 38.4688 81.3203 38.4688C81.3203 38.4198 81.3203 38.3708 81.3203 38.3203Z" fill="#5A4FCF"/>
<path d="M89.1875 37.5781C89.4324 37.5781 89.6773 37.5781 89.9297 37.5781C89.9297 37.6271 89.9297 37.6761 89.9297 37.7266C89.6848 37.7266 89.4398 37.7266 89.1875 37.7266C89.1875 37.6776 89.1875 37.6286 89.1875 37.5781Z" fill="#5A4FCF"/>
<path d="M117.094 27.3359C117.143 27.3359 117.192 27.3359 117.242 27.3359C117.242 27.5809 117.242 27.8258 117.242 28.0781C117.193 28.0781 117.144 28.0781 117.094 28.0781C117.094 27.8332 117.094 27.5883 117.094 27.3359Z" fill="#5A4FCF"/>
<path d="M62.0234 107.641C62.6172 107.789 62.6172 107.789 62.6172 107.789L62.0234 107.641Z" fill="#5A4FCF"/>
<path d="M31 94.875C31.5938 95.0234 31.5938 95.0234 31.5938 95.0234L31 94.875Z" fill="#000001"/>
<path d="M52.5234 70.9766C52.6704 71.197 52.6704 71.197 52.8203 71.4219C52.7223 71.4219 52.6244 71.4219 52.5234 71.4219C52.5234 71.2749 52.5234 71.128 52.5234 70.9766Z" fill="#5A4FCF"/>
<path d="M25.9531 71.2734C26.0511 71.2734 26.1491 71.2734 26.25 71.2734C26.25 71.3714 26.25 71.4694 26.25 71.5703C26.152 71.5703 26.0541 71.5703 25.9531 71.5703C25.9531 71.4723 25.9531 71.3744 25.9531 71.2734Z" fill="#5A4FCF"/>
<path d="M21.5 67.2656C21.6484 67.8594 21.6484 67.8594 21.6484 67.8594L21.5 67.2656Z" fill="#5A4FCF"/>
<path d="M93.0469 39.5078C93.6406 39.6562 93.6406 39.6562 93.6406 39.6562L93.0469 39.5078Z" fill="#5A4FCF"/>
<path d="M60.6875 12.9375C61.2812 13.0859 61.2812 13.0859 61.2812 13.0859L60.6875 12.9375Z" fill="#5A4FCF"/>
<path d="M28.3281 95.1719C28.7734 95.3203 28.7734 95.3203 28.7734 95.3203L28.3281 95.1719Z" fill="#5A4FCF"/>
<path d="M31.1484 70.3828C31.2954 70.4563 31.2954 70.4563 31.4453 70.5312C31.2984 70.6047 31.2984 70.6047 31.1484 70.6797C31.1484 70.5817 31.1484 70.4838 31.1484 70.3828Z" fill="#5A4FCF"/>
<path d="M22.0938 49.4531C22.1427 49.5511 22.1917 49.6491 22.2422 49.75C22.1442 49.701 22.0463 49.652 21.9453 49.6016C21.9943 49.5526 22.0433 49.5036 22.0938 49.4531Z" fill="#5A4FCF"/>
<path d="M72.4141 45.1484C72.463 45.2464 72.512 45.3444 72.5625 45.4453C72.4645 45.3963 72.3666 45.3473 72.2656 45.2969C72.3146 45.2479 72.3636 45.1989 72.4141 45.1484Z" fill="#5A4FCF"/>
<path d="M109.969 39.9531C110.116 40.0266 110.116 40.0266 110.266 40.1016C110.119 40.175 110.119 40.175 109.969 40.25C109.969 40.152 109.969 40.0541 109.969 39.9531Z" fill="#5A4FCF"/>
<path d="M88.4453 37.5781C88.8906 37.7266 88.8906 37.7266 88.8906 37.7266L88.4453 37.5781Z" fill="#5A4FCF"/>
<path d="M109.523 23.1797C109.969 23.3281 109.969 23.3281 109.969 23.3281L109.523 23.1797Z" fill="#5A4FCF"/>
<path d="M108.781 18.875C109.227 19.0234 109.227 19.0234 109.227 19.0234L108.781 18.875Z" fill="#5A4FCF"/>
<path d="M80.5781 14.125C81.0234 14.2734 81.0234 14.2734 81.0234 14.2734L80.5781 14.125Z" fill="#5A4FCF"/>
<path d="M116.797 133.32C117.094 133.469 117.094 133.469 117.094 133.469L116.797 133.32Z" fill="#757576"/>
<path d="M116.797 129.758C117.094 129.906 117.094 129.906 117.094 129.906L116.797 129.758Z" fill="#686869"/>
<path d="M116.797 126.195C117.094 126.344 117.094 126.344 117.094 126.344L116.797 126.195Z" fill="#5B5A5B"/>
<path d="M55.6406 106.156C55.9375 106.305 55.9375 106.305 55.9375 106.305L55.6406 106.156Z" fill="#5A4FCF"/>
<path d="M87.4062 104.078C87.7031 104.227 87.7031 104.227 87.7031 104.227L87.4062 104.078Z" fill="#5A4FCF"/>
<path d="M93.3438 100.961C93.6406 101.109 93.6406 101.109 93.6406 101.109L93.3438 100.961Z" fill="#5A4FCF"/>
<path d="M32.9297 99.4766C33.2266 99.625 33.2266 99.625 33.2266 99.625L32.9297 99.4766Z" fill="#5A4FCF"/>
<path d="M30.4062 95.0234C30.7031 95.1719 30.7031 95.1719 30.7031 95.1719L30.4062 95.0234Z" fill="#5A4FCF"/>
<path d="M116.797 91.7578C117.094 91.9062 117.094 91.9062 117.094 91.9062L116.797 91.7578Z" fill="#0B0B0C"/>
<path d="M105.516 90.2734C105.812 90.4219 105.812 90.4219 105.812 90.4219L105.516 90.2734Z" fill="#5A4FCF"/>
<path d="M73.75 75.875C74.0469 76.0234 74.0469 76.0234 74.0469 76.0234L73.75 75.875Z" fill="#5A4FCF"/>
<path d="M116.797 71.5703C117.094 71.7188 117.094 71.7188 117.094 71.7188L116.797 71.5703Z" fill="#000100"/>
<path d="M81.6172 71.4219C81.9141 71.5703 81.9141 71.5703 81.9141 71.5703L81.6172 71.4219Z" fill="#5A4FCF"/>
<path d="M116.797 70.3828C117.094 70.5312 117.094 70.5312 117.094 70.5312L116.797 70.3828Z" fill="#5A4FCF"/>
<path d="M21.9453 69.7891C22.2422 69.9375 22.2422 69.9375 22.2422 69.9375L21.9453 69.7891Z" fill="#5A4FCF"/>
<path d="M92.0078 67.8594C92.3047 68.0078 92.3047 68.0078 92.3047 68.0078L92.0078 67.8594Z" fill="#5A4FCF"/>
<path d="M116.797 66.8203C117.094 66.9688 117.094 66.9688 117.094 66.9688L116.797 66.8203Z" fill="#5A4FCF"/>
<path d="M116.797 62.0703C117.094 62.2188 117.094 62.2188 117.094 62.2188L116.797 62.0703Z" fill="#5A4FCF"/>
<path d="M20.6094 59.8438C20.9062 59.9922 20.9062 59.9922 20.9062 59.9922L20.6094 59.8438Z" fill="#5A4FCF"/>
<path d="M92.3047 57.4688C92.6016 57.6172 92.6016 57.6172 92.6016 57.6172L92.3047 57.4688Z" fill="#5A4FCF"/>
<path d="M91.7109 57.3203C92.0078 57.4688 92.0078 57.4688 92.0078 57.4688L91.7109 57.3203Z" fill="#000100"/>
<path d="M87.7031 57.3203C88 57.4688 88 57.4688 88 57.4688L87.7031 57.3203Z" fill="#5A4FCF"/>
<path d="M49.1094 55.6875C49.4062 55.8359 49.4062 55.8359 49.4062 55.8359L49.1094 55.6875Z" fill="#5A4FCF"/>
<path d="M95.125 38.7656C95.4219 38.9141 95.4219 38.9141 95.4219 38.9141L95.125 38.7656Z" fill="#000100"/>
<path d="M86.2188 37.7266C86.5156 37.875 86.5156 37.875 86.5156 37.875L86.2188 37.7266Z" fill="#5A4FCF"/>
<path d="M116.797 28.8203C117.094 28.9688 117.094 28.9688 117.094 28.9688L116.797 28.8203Z" fill="#5A4FCF"/>
<path d="M117.094 28.5234C117.391 28.6719 117.391 28.6719 117.391 28.6719L117.094 28.5234Z" fill="#5A4FCF"/>
<path d="M105.07 19.6172C105.367 19.7656 105.367 19.7656 105.367 19.7656L105.07 19.6172Z" fill="#5A4FCF"/>
<path d="M46.7344 17.6875C47.0312 17.8359 47.0312 17.8359 47.0312 17.8359L46.7344 17.6875Z" fill="#5A4FCF"/>
<path d="M87.7031 16.6484C88 16.7969 88 16.7969 88 16.7969L87.7031 16.6484Z" fill="#5A4FCF"/>
<path d="M81.7656 14.4219C82.0625 14.5703 82.0625 14.5703 82.0625 14.5703L81.7656 14.4219Z" fill="#5A4FCF"/>
<path d="M75.3828 12.9375C75.6797 13.0859 75.6797 13.0859 75.6797 13.0859L75.3828 12.9375Z" fill="#5A4FCF"/>
</svg>
